<svg width="20" height="20" viewBox="0 0 20 20" fill="none" xmlns="http://www.w3.org/2000/svg">
<g clip-path="url(#clip0_768_4649)">
<path d="M-1 -0.257812H34.7359V21.2572H-1V-0.257812Z" fill="#DE2910"/>
<path d="M2.54736 8.39433L3.24256 6.2475L1.41992 4.91475L3.67481 4.91114L4.37721 2.76792L5.07961 4.91114L7.33449 4.91835L5.51185 6.2475L6.20345 8.39433L4.37721 7.07237L2.54736 8.39433ZM8.83654 9.55419L9.60018 9.86036L10.1297 9.2336L10.072 10.0513L10.8321 10.361L10.036 10.5592L9.97839 11.3768L9.54255 10.6852L8.74649 10.8797L9.27239 10.2494L8.83654 9.55419ZM12.9573 5.42984L12.1504 5.28936L11.765 6.00977L11.6461 5.19931L10.8393 5.05523L11.5777 4.69502L11.466 3.88096L12.0352 4.47169L12.7736 4.11149L12.3918 4.8391L12.9573 5.42984ZM11.2427 9.10393L11.4949 8.32229L10.8321 7.83961H11.6533L11.9091 7.05797L12.1648 7.83961H12.9825L12.3197 8.32229L12.5719 9.10393L11.9091 8.62486L11.2427 9.10393ZM8.87617 1.97547L9.62179 2.32127L10.1837 1.71973L10.0865 2.53379L10.8285 2.88319L10.0216 3.04168L9.92076 3.85574L9.52093 3.13893L8.71407 3.29382L9.27239 2.69228L8.87617 1.97547Z" fill="#FFDE00"/>
</g>
<defs>
<clipPath id="clip0_768_4649">
<rect width="37" height="21" fill="white" transform="translate(-1)"/>
</clipPath>
</defs>
</svg>
