<svg xmlns="http://www.w3.org/2000/svg" width="12" height="12" viewBox="0 0 12 12" fill="none">
  <g clip-path="url(#clip0_503_4553)">
    <path d="M10.1907 6.57124H6.57161V10.1903C6.57161 10.5236 6.33352 10.7617 6.00019 10.7617C5.66685 10.7617 5.42876 10.5236 5.42876 10.1903V6.57124H1.80971C1.47638 6.57124 1.23828 6.33315 1.23828 5.99981C1.23828 5.66648 1.47638 5.42839 1.80971 5.42839H5.42876V1.80934C5.42876 1.476 5.66685 1.23791 6.00019 1.23791C6.33352 1.23791 6.57161 1.476 6.57161 1.80934V5.42839H10.1907C10.524 5.42839 10.7621 5.66648 10.7621 5.99981C10.7621 6.33315 10.524 6.57124 10.1907 6.57124Z" fill="#1C64F2" stroke="#1C64F2" stroke-width="0.8"/>
  </g>
  <defs>
    <clipPath id="clip0_503_4553">
      <rect width="12" height="12" fill="white" transform="matrix(1 0 0 -1 0 12)"/>
    </clipPath>
  </defs>
</svg>