<svg xmlns="http://www.w3.org/2000/svg" width="20" height="20" viewBox="0 0 20 20" fill="none">
  <path d="M10.0137 4.82324C8.32703 4.82324 6.95703 6.19324 6.95703 7.87991C6.95703 9.56658 8.32703 10.9366 10.0137 10.9366C11.7004 10.9366 13.0704 9.56658 13.0704 7.87991C13.0704 6.19324 11.7037 4.82324 10.0137 4.82324ZM10.0137 9.60324C9.0637 9.60324 8.29036 8.82991 8.29036 7.87991C8.29036 6.92991 9.0637 6.15658 10.0137 6.15658C10.9637 6.15658 11.737 6.92991 11.737 7.87991C11.737 8.82991 10.9637 9.60324 10.0137 9.60324Z" fill="#09090B"/>
  <path d="M10.0133 0.769989C5.78001 0.769989 2.34668 4.20332 2.34668 8.43666C2.34668 12.6 6.17335 16.5067 8.42001 18.44C8.86329 18.8212 9.4287 19.0306 10.0133 19.03C10.58 19.03 11.15 18.8333 11.6067 18.44C13.8533 16.5067 17.68 12.6 17.68 8.43666C17.68 4.19999 14.2467 0.769989 10.0133 0.769989ZM10.7367 17.4267C10.5367 17.6 10.28 17.6933 10.0133 17.6933C9.74668 17.6933 9.49001 17.5967 9.29001 17.4267C7.60335 15.9733 3.68001 12.19 3.68001 8.43332C3.68001 4.93999 6.52001 2.09999 10.0133 2.09999C13.5067 2.09999 16.3467 4.93999 16.3467 8.43332C16.3467 12.1933 12.4233 15.9767 10.7367 17.4267Z" fill="#09090B"/>
</svg>