<svg xmlns="http://www.w3.org/2000/svg" width="34" height="34" viewBox="0 0 34 34" fill="none">
  <path d="M18.6385 8C18.3177 8 18.0198 8.12125 17.8021 8.33068C17.5844 8.54011 17.4583 8.8267 17.4583 9.13533C17.4583 9.43295 17.5844 9.71953 17.8021 9.93999L23.9667 15.8702H7.18021C6.52708 15.8702 6 16.3772 6 17.0055C6 17.6338 6.52708 18.1408 7.18021 18.1408H23.9667L17.8021 24.06C17.5729 24.2805 17.4583 24.556 17.4583 24.8647C17.4583 25.1733 17.5844 25.4489 17.8021 25.6693C18.0312 25.8898 18.3177 26 18.6385 26C18.9594 26 19.2458 25.8788 19.475 25.6693L27.6562 17.7991C27.8854 17.5787 28 17.3031 28 16.9945C28 16.6859 27.874 16.4103 27.6562 16.1898L19.475 8.31966C19.2573 8.11023 18.9594 8 18.6385 8Z" fill="white" fill-opacity="0.9"/>
</svg>