<svg xmlns="http://www.w3.org/2000/svg" width="16" height="16" viewBox="0 0 16 16" fill="none">
  <g clip-path="url(#clip0_735_4362)">
    <path d="M8.81953 8.66648C8.81953 9.12917 8.41869 9.50977 7.91953 9.50977C7.42037 9.50977 7.01953 9.12917 7.01953 8.66648V1.35305C7.01953 0.890363 7.42037 0.509766 7.91953 0.509766C8.41869 0.509766 8.81953 0.890363 8.81953 1.35305V8.66648Z" fill="#6B717D"/>
    <path d="M1.01758 8.58241C1.01758 6.11027 2.33424 3.93069 4.30922 2.71657C4.69442 2.4752 5.19867 2.58492 5.4578 2.97987C5.68891 3.35289 5.59086 3.85024 5.24069 4.0916C5.22668 4.09892 5.21268 4.11354 5.19867 4.12086C3.68591 5.04974 2.69141 6.69539 2.69141 8.58241C2.69842 11.4934 5.07261 13.8485 8.01408 13.8558C10.9555 13.8485 13.3297 11.4934 13.3367 8.58241C13.3367 6.65151 12.2862 4.96928 10.7244 4.04772C10.3462 3.83561 10.2062 3.35289 10.4093 2.95793L10.4303 2.91405C10.6684 2.51909 11.1797 2.39475 11.5789 2.62149C13.6309 3.82098 15.0176 6.03713 15.0176 8.57509C15.0176 12.4003 11.887 15.5088 8.02108 15.5088C4.14814 15.5161 1.01758 12.4149 1.01758 8.58241Z" fill="#6B717D"/>
  </g>
  <defs>
    <clipPath id="clip0_735_4362">
      <rect width="16" height="16" fill="white"/>
    </clipPath>
  </defs>
</svg>