<svg xmlns="http://www.w3.org/2000/svg" width="16" height="16" viewBox="0 0 16 16" fill="none">
  <g clip-path="url(#clip0_735_4350)">
    <path d="M9.25 7.63023C9 7.54023 8.75 7.49023 8.49 7.43023C9.82 6.85023 10.75 5.53023 10.75 3.99023C10.75 1.92023 9.07 0.240234 7 0.240234C4.93 0.240234 3.25 1.92023 3.25 3.99023C3.25 5.52023 4.17 6.83023 5.49 7.42023C2.49 8.12023 0.25 10.8002 0.25 14.0002C0.25 14.3802 0.28 14.7602 0.34 15.1202C0.4 15.4902 0.72 15.7502 1.08 15.7502C1.12 15.7502 1.16 15.7502 1.21 15.7402C1.40501 15.7059 1.57892 15.5968 1.69472 15.4362C1.81052 15.2756 1.85905 15.0761 1.83 14.8802C1.78147 14.5895 1.75805 14.295 1.76 14.0002C1.76131 13.1608 1.96367 12.3339 2.35014 11.5887C2.73661 10.8435 3.29594 10.2017 3.98134 9.71702C4.66673 9.23235 5.45824 8.9189 6.28964 8.80289C7.12103 8.68688 7.96811 8.7717 8.76 9.05023C9.15 9.19024 9.58 8.98024 9.72 8.59023C9.78595 8.40192 9.77457 8.19513 9.68835 8.01519C9.60213 7.83525 9.4481 7.69682 9.26 7.63023H9.25ZM4.75 4.00023C4.75 2.76023 5.76 1.75023 7 1.75023C8.24 1.75023 9.25 2.76023 9.25 4.00023C9.25 5.24023 8.24 6.25023 7 6.25023C5.76 6.25023 4.75 5.24023 4.75 4.00023ZM10.25 9.00023C10.25 9.41023 10.59 9.75023 11 9.75023H15C15.41 9.75023 15.75 9.41023 15.75 9.00023C15.75 8.59023 15.41 8.25023 15 8.25023H11C10.59 8.25023 10.25 8.59023 10.25 9.00023ZM15 11.2502H11C10.59 11.2502 10.25 11.5902 10.25 12.0002C10.25 12.4102 10.59 12.7502 11 12.7502H15C15.41 12.7502 15.75 12.4102 15.75 12.0002C15.75 11.5902 15.41 11.2502 15 11.2502ZM15 14.2502H11C10.59 14.2502 10.25 14.5902 10.25 15.0002C10.25 15.4102 10.59 15.7502 11 15.7502H15C15.41 15.7502 15.75 15.4102 15.75 15.0002C15.75 14.5902 15.41 14.2502 15 14.2502Z" fill="#6B717D"/>
  </g>
  <defs>
    <clipPath id="clip0_735_4350">
      <rect width="16" height="16" fill="white"/>
    </clipPath>
  </defs>
</svg>