<svg xmlns="http://www.w3.org/2000/svg" width="16" height="16" viewBox="0 0 16 16" fill="none">
  <path d="M7.64706 4.02941C6.31029 4.02941 5.29412 4.91177 5.29412 6.38235H6.76471C6.76471 5.79412 7.05882 5.20588 7.64706 5.20588C8.23529 5.20588 8.58824 5.57118 8.51618 6.15529C8.40912 7.02382 6.76471 7.30471 6.76471 8.84176V9.32353H8.23529V9.02941C8.23529 7.97353 10 7.61235 10 6.08824C10 4.91177 8.99706 4.02941 7.64706 4.02941ZM6.76471 11.6765H8.23529V10.2059H6.76471V11.6765ZM7.5 0.5C5.49647 0.5 3.61294 1.28029 2.19676 2.69676C0.78 4.11324 0 5.99677 0 8C0 12.1356 3.36441 15.5 7.5 15.5H7.50118C9.50412 15.5 11.3874 14.7197 12.8041 13.3032C14.2197 11.8868 15 10.0032 15 8C15 3.86441 11.6356 0.5 7.5 0.5ZM11.8044 12.3041C11.2407 12.871 10.5701 13.3204 9.8315 13.6264C9.09289 13.9323 8.30093 14.0887 7.50147 14.0865H7.5C4.14412 14.0865 1.41324 11.3562 1.41324 8C1.41105 7.20037 1.56745 6.40825 1.87339 5.66945C2.17933 4.93066 2.62873 4.25987 3.19559 3.69588C3.75959 3.12895 4.43043 2.67948 5.16927 2.37349C5.90811 2.0675 6.7003 1.91107 7.5 1.91324C10.8559 1.91324 13.5868 4.64382 13.5868 8C13.5889 8.79963 13.4325 9.59175 13.1266 10.3305C12.8207 11.0693 12.3713 11.7401 11.8044 12.3041Z" fill="#6B717D"/>
</svg>