<svg xmlns="http://www.w3.org/2000/svg" width="54" height="54" viewBox="0 0 54 54" fill="none">
  <circle cx="27" cy="27" r="27" fill="#1C64F2"/>
  <path d="M26 36C26 36.5523 26.4477 37 27 37C27.5523 37 28 36.5523 28 36L27 36L26 36ZM27.7071 17.2929C27.3166 16.9024 26.6834 16.9024 26.2929 17.2929L19.9289 23.6569C19.5384 24.0474 19.5384 24.6805 19.9289 25.0711C20.3195 25.4616 20.9526 25.4616 21.3431 25.0711L27 19.4142L32.6569 25.0711C33.0474 25.4616 33.6805 25.4616 34.0711 25.0711C34.4616 24.6805 34.4616 24.0474 34.0711 23.6569L27.7071 17.2929ZM27 36L28 36L28 18L27 18L26 18L26 36L27 36Z" fill="white"/>
</svg>