<svg xmlns="http://www.w3.org/2000/svg" width="20" height="20" viewBox="0 0 20 20" fill="none">
  <path d="M12.4274 1C12.9257 0.999935 13.4079 1.18882 13.7882 1.53304C14.1685 1.87727 14.4222 2.35451 14.5042 2.87987L14.5611 3.25H17.3684C18.0664 3.25 18.7357 3.54632 19.2292 4.07376C19.7227 4.60121 20 5.31658 20 6.0625V16.1875C20 16.9334 19.7227 17.6488 19.2292 18.1762C18.7357 18.7037 18.0664 19 17.3684 19H2.63158C1.93364 19 1.26429 18.7037 0.770772 18.1762C0.277255 17.6488 6.54317e-09 16.9334 0 16.1875V6.0625C0 5.31658 0.277255 4.60121 0.770772 4.07376C1.26429 3.54632 1.93364 3.25 2.63158 3.25H5.4379L5.49579 2.87987C5.57777 2.35451 5.83147 1.87727 6.21177 1.53304C6.59206 1.18882 7.07428 0.999935 7.57263 1H12.4274ZM12.4274 2.6875H7.57263C7.46409 2.6878 7.35828 2.72396 7.26972 2.79102C7.18115 2.85809 7.11415 2.95278 7.0779 3.06212L7.05263 3.16L6.81684 4.65625C6.80443 4.73474 6.76646 4.80601 6.70963 4.85748C6.65281 4.90894 6.5808 4.93729 6.50632 4.9375H2.63158C2.37375 4.93754 2.12491 5.0387 1.93224 5.22181C1.73957 5.40491 1.61648 5.65722 1.58632 5.93087L1.57895 6.0625V16.1875C1.57898 16.4631 1.67364 16.729 1.84496 16.9349C2.01629 17.1408 2.25237 17.2724 2.50842 17.3046L2.63158 17.3125H17.3684C17.6262 17.3125 17.8751 17.2113 18.0678 17.0282C18.2604 16.8451 18.3835 16.5928 18.4137 16.3191L18.4211 16.1875V6.0625C18.421 5.78695 18.3264 5.521 18.155 5.31508C17.9837 5.10917 17.7476 4.97761 17.4916 4.94538L17.3684 4.9375H13.4895C13.4147 4.93751 13.3423 4.90913 13.2852 4.85741C13.2281 4.8057 13.1901 4.73401 13.1779 4.65513L12.9463 3.15775C12.9285 3.04341 12.8781 2.93773 12.802 2.85516C12.7259 2.7726 12.6278 2.71719 12.5211 2.6965L12.4263 2.6875H12.4274ZM10 7.75C10.4147 7.75 10.8253 7.8373 11.2085 8.00691C11.5916 8.17652 11.9397 8.42512 12.233 8.73852C12.5262 9.05191 12.7588 9.42397 12.9175 9.83344C13.0762 10.2429 13.1579 10.6818 13.1579 11.125C13.1579 11.5682 13.0762 12.0071 12.9175 12.4166C12.7588 12.826 12.5262 13.1981 12.233 13.5115C11.9397 13.8249 11.5916 14.0735 11.2085 14.2431C10.8253 14.4127 10.4147 14.5 10 14.5C9.16247 14.5 8.35925 14.1444 7.76703 13.5115C7.17481 12.8786 6.84211 12.0201 6.84211 11.125C6.84211 10.2299 7.17481 9.37145 7.76703 8.73852C8.35925 8.10558 9.16247 7.75 10 7.75ZM10 9.4375C9.79265 9.4375 9.58733 9.48115 9.39576 9.56595C9.2042 9.65076 9.03014 9.77506 8.88352 9.93176C8.7369 10.0885 8.62059 10.2745 8.54124 10.4792C8.46189 10.684 8.42105 10.9034 8.42105 11.125C8.42105 11.3466 8.46189 11.566 8.54124 11.7708C8.62059 11.9755 8.7369 12.1615 8.88352 12.3182C9.03014 12.4749 9.2042 12.5992 9.39576 12.684C9.58733 12.7689 9.79265 12.8125 10 12.8125C10.4188 12.8125 10.8204 12.6347 11.1165 12.3182C11.4126 12.0018 11.5789 11.5726 11.5789 11.125C11.5789 10.6774 11.4126 10.2482 11.1165 9.93176C10.8204 9.61529 10.4188 9.4375 10 9.4375ZM15.2632 6.34375C15.4632 6.34382 15.6557 6.42503 15.8019 6.57097C15.948 6.71691 16.0369 6.91671 16.0506 7.12999C16.0642 7.34327 16.0016 7.55413 15.8753 7.71996C15.7491 7.88579 15.5687 7.99424 15.3705 8.02338L15.2632 8.03125H14.2105C14.0105 8.03119 13.818 7.94998 13.6718 7.80403C13.5256 7.65809 13.4368 7.45829 13.4231 7.24501C13.4095 7.03173 13.4721 6.82087 13.5984 6.65504C13.7246 6.48921 13.905 6.38076 14.1032 6.35162L14.2105 6.34375H15.2632Z" fill="black"/>
</svg>