<svg xmlns="http://www.w3.org/2000/svg" width="20" height="20" viewBox="0 0 20 20" fill="none">
  <g clip-path="url(#clip0_234_5444)">
    <path d="M18.999 10.0001C18.9991 11.1821 18.7664 12.3525 18.3142 13.4445C17.862 14.5365 17.1991 15.5287 16.3634 16.3645C15.5278 17.2003 14.5357 17.8634 13.4438 18.3157C12.3519 18.7681 11.1816 19.001 9.99967 19.0011C8.81777 19.0012 7.64743 18.7685 6.55547 18.3162C5.4635 17.864 4.4713 17.2011 3.63552 16.3654C2.79973 15.5297 2.13672 14.5376 1.68435 13.4456C1.23198 12.3537 0.999108 11.1834 0.999023 10.0014C0.999023 7.61439 1.94723 5.32512 3.63506 3.63723C5.32289 1.94934 7.61207 1.0011 9.99902 1.0011C12.386 1.0011 14.6752 1.94934 16.363 3.63723C18.0508 5.32512 18.999 7.61439 18.999 10.0014V10.0001ZM17.7134 10.0001C17.7134 8.98712 17.5139 7.98402 17.1262 7.04811C16.7386 6.1122 16.1704 5.26182 15.4541 4.54551C14.7378 3.82919 13.8875 3.26098 12.9516 2.87332C12.0157 2.48565 11.0126 2.28612 9.99967 2.28612C8.98668 2.28612 7.98362 2.48565 7.04775 2.87332C6.11187 3.26098 5.26152 3.82919 4.54523 4.54551C3.82895 5.26182 3.26076 6.1122 2.8731 7.04811C2.48545 7.98402 2.28593 8.98712 2.28593 10.0001C2.28593 12.046 3.09863 14.0081 4.54523 15.4548C5.99184 16.9014 7.95386 17.7141 9.99967 17.7141C12.0455 17.7141 14.0075 16.9014 15.4541 15.4548C16.9007 14.0081 17.7134 12.046 17.7134 10.0001Z" fill="#09090B" stroke="#09090B" stroke-width="0.3"/>
    <path d="M10.399 9.60107H15.2989C15.3909 9.60106 15.4819 9.61915 15.5668 9.65433C15.6518 9.6895 15.7289 9.74106 15.794 9.80606C15.859 9.87107 15.9105 9.94824 15.9457 10.0332C15.9809 10.1181 15.999 10.2091 15.999 10.3011C15.999 10.393 15.9809 10.4841 15.9457 10.569C15.9105 10.6539 15.859 10.7311 15.794 10.7961C15.7289 10.8611 15.6518 10.9127 15.5668 10.9478C15.4819 10.983 15.3909 11.0011 15.2989 11.0011H9.69901C9.51336 11.0011 9.33532 10.9273 9.20405 10.7961C9.07277 10.6648 8.99902 10.4867 8.99902 10.3011V4.70099C8.99905 4.51536 9.07282 4.33734 9.20409 4.20609C9.33536 4.07483 9.51338 4.0011 9.69901 4.0011C9.88464 4.0011 10.0627 4.07483 10.1939 4.20609C10.3252 4.33734 10.399 4.51536 10.399 4.70099V9.60107Z" fill="#09090B" stroke="#09090B" stroke-width="0.3"/>
  </g>
  <defs>
    <clipPath id="clip0_234_5444">
      <rect width="20" height="20" fill="white"/>
    </clipPath>
  </defs>
</svg>