<svg xmlns="http://www.w3.org/2000/svg" width="24" height="24" viewBox="0 0 24 24" fill="none">
  <path d="M20.4377 3.04919H3.5627C2.88066 3.04919 2.3252 3.60466 2.3252 4.28669V15.7898C2.3252 16.4719 2.88066 17.0273 3.5627 17.0273H20.4377C21.1197 17.0273 21.6752 16.4719 21.6752 15.7898V4.28669C21.6752 3.60466 21.1197 3.04919 20.4377 3.04919ZM20.0346 15.389H3.96582V4.68982H20.0346V15.389ZM18.7408 19.1179H5.25957C4.80723 19.1179 4.43926 19.4859 4.43926 19.9383C4.43926 20.3906 4.80723 20.7586 5.25957 20.7586H18.7408C19.1932 20.7586 19.5611 20.3906 19.5611 19.9383C19.5611 19.4836 19.1932 19.1179 18.7408 19.1179Z" fill="black"/>
  <path d="M5.78008 12.3984C6.10117 12.7195 6.61914 12.7195 6.94023 12.3984L9.00977 10.3289C9.33086 10.0078 9.84883 10.0078 10.1699 10.3289L12.7926 12.9515C13.1137 13.2726 13.6316 13.2726 13.9527 12.9515L18.2184 8.68589C18.5395 8.3648 18.5395 7.84683 18.2184 7.52573C17.8973 7.20464 17.3793 7.20464 17.0582 7.52573L13.9551 10.6312C13.634 10.9523 13.116 10.9523 12.7949 10.6312L10.1723 8.00855C9.85117 7.68745 9.3332 7.68745 9.01211 8.00855L5.78008 11.2382C5.46133 11.5593 5.46133 12.0773 5.78008 12.3984Z" fill="black"/>
</svg>