<svg xmlns="http://www.w3.org/2000/svg" width="28" height="28" viewBox="0 0 28 28" fill="none">
  <path d="M12.9932 3.39292C10.4471 3.39292 8.00529 4.40435 6.20494 6.20469C4.40459 8.00504 3.39316 10.4468 3.39316 12.9929C3.39316 15.539 4.40459 17.9808 6.20494 19.7811C8.00529 21.5815 10.4471 22.5929 12.9932 22.5929C15.5392 22.5929 17.981 21.5815 19.7814 19.7811C21.5817 17.9808 22.5932 15.539 22.5932 12.9929C22.5932 10.4468 21.5817 8.00504 19.7814 6.20469C17.981 4.40435 15.5392 3.39292 12.9932 3.39292ZM0.993164 12.9929C0.993164 6.36532 6.36556 0.99292 12.9932 0.99292C19.6208 0.99292 24.9932 6.36532 24.9932 12.9929C24.9932 19.6205 19.6208 24.9929 12.9932 24.9929C6.36556 24.9929 0.993164 19.6205 0.993164 12.9929Z" fill="#6B717D"/>
  <path d="M20.0188 19.8384C20.2299 19.6219 20.5162 19.5003 20.8147 19.5003C21.1133 19.5003 21.3996 19.6219 21.6107 19.8384L26.6771 25.0356C26.8822 25.2535 26.9957 25.5452 26.9931 25.848C26.9906 26.1508 26.8722 26.4405 26.6634 26.6546C26.4547 26.8688 26.1723 26.9902 25.8771 26.9929C25.5819 26.9955 25.2975 26.8791 25.0851 26.6687L20.0188 21.4715C19.8077 21.2549 19.6891 20.9612 19.6891 20.655C19.6891 20.3487 19.8077 20.055 20.0188 19.8384ZM8.99316 13.1479C8.99316 12.8415 9.11178 12.5478 9.32292 12.3312C9.53406 12.1146 9.82043 11.9929 10.119 11.9929H16.8742C17.0221 11.9929 17.1685 12.0228 17.3051 12.0808C17.4417 12.1388 17.5659 12.2239 17.6704 12.3311C17.775 12.4384 17.8579 12.5657 17.9145 12.7058C17.9711 12.846 18.0003 12.9962 18.0003 13.1479C18.0003 13.2995 17.9711 13.4497 17.9145 13.5899C17.8579 13.73 17.775 13.8573 17.6704 13.9646C17.5659 14.0718 17.4417 14.1569 17.3051 14.2149C17.1685 14.273 17.0221 14.3028 16.8742 14.3028H10.119C9.82043 14.3028 9.53406 14.1811 9.32292 13.9645C9.11178 13.7479 8.99316 13.4542 8.99316 13.1479Z" fill="#6B717D"/>
  <path d="M12.9932 16.9929C12.7279 16.9929 12.4736 16.8876 12.2861 16.7C12.0985 16.5125 11.9932 16.2582 11.9932 15.9929V9.99305C11.9931 9.86172 12.019 9.73167 12.0692 9.61033C12.1195 9.48899 12.1931 9.37873 12.286 9.28586C12.3789 9.19299 12.4891 9.11932 12.6104 9.06905C12.7318 9.01879 12.8618 8.99292 12.9932 8.99292C13.1245 8.99292 13.2545 9.01879 13.3759 9.06905C13.4972 9.11932 13.6075 9.19299 13.7003 9.28586C13.7932 9.37873 13.8668 9.48899 13.9171 9.61033C13.9673 9.73167 13.9932 9.86172 13.9932 9.99305V15.9929C13.9932 16.2582 13.8878 16.5125 13.7003 16.7C13.5127 16.8876 13.2584 16.9929 12.9932 16.9929Z" fill="#6B717D"/>
</svg>