<svg xmlns="http://www.w3.org/2000/svg" width="24" height="24" viewBox="0 0 24 24" fill="none">
  <path d="M3.414 2H7C7.26522 2 7.51957 1.89464 7.70711 1.70711C7.89464 1.51957 8 1.26522 8 1C8 0.734784 7.89464 0.48043 7.70711 0.292893C7.51957 0.105357 7.26522 0 7 0H1C0.734784 0 0.48043 0.105357 0.292893 0.292893C0.105357 0.48043 0 0.734784 0 1V7C0 7.26522 0.105357 7.51957 0.292893 7.70711C0.48043 7.89464 0.734784 8 1 8C1.26522 8 1.51957 7.89464 1.70711 7.70711C1.89464 7.51957 2 7.26522 2 7V3.414L6.2925 7.7065C6.38478 7.80198 6.49515 7.87812 6.61718 7.93048C6.7392 7.98285 6.87043 8.01039 7.00321 8.0115C7.13599 8.0126 7.26766 7.98726 7.39053 7.93693C7.51341 7.88661 7.62504 7.81231 7.7189 7.71839C7.81276 7.62446 7.88697 7.51278 7.93721 7.38987C7.98744 7.26696 8.0127 7.13527 8.0115 7.00249C8.0103 6.86971 7.98267 6.7385 7.93021 6.61652C7.87776 6.49453 7.80154 6.38421 7.706 6.292L3.414 2ZM22 3.414V7C22 7.26522 22.1054 7.51957 22.2929 7.70711C22.4804 7.89464 22.7348 8 23 8C23.2652 8 23.5196 7.89464 23.7071 7.70711C23.8946 7.51957 24 7.26522 24 7V1C24 0.734784 23.8946 0.48043 23.7071 0.292893C23.5196 0.105357 23.2652 0 23 0H17C16.7348 0 16.4804 0.105357 16.2929 0.292893C16.1054 0.48043 16 0.734784 16 1C16 1.26522 16.1054 1.51957 16.2929 1.70711C16.4804 1.89464 16.7348 2 17 2H20.586L16.2935 6.2925C16.198 6.38478 16.1219 6.49515 16.0695 6.61718C16.0171 6.7392 15.9896 6.87043 15.9885 7.00321C15.9874 7.13599 16.0127 7.26766 16.0631 7.39053C16.1134 7.51341 16.1877 7.62504 16.2816 7.7189C16.3755 7.81276 16.4872 7.88697 16.6101 7.93721C16.733 7.98744 16.8647 8.0127 16.9975 8.0115C17.1303 8.0103 17.2615 7.98267 17.3835 7.93021C17.5055 7.87776 17.6158 7.80154 17.708 7.706L22 3.414ZM3.414 22H7C7.26522 22 7.51957 22.1054 7.70711 22.2929C7.89464 22.4804 8 22.7348 8 23C8 23.2652 7.89464 23.5196 7.70711 23.7071C7.51957 23.8946 7.26522 24 7 24H1C0.734784 24 0.48043 23.8946 0.292893 23.7071C0.105357 23.5196 0 23.2652 0 23V17C0 16.7348 0.105357 16.4804 0.292893 16.2929C0.48043 16.1054 0.734784 16 1 16C1.26522 16 1.51957 16.1054 1.70711 16.2929C1.89464 16.4804 2 16.7348 2 17V20.586L6.2925 16.2935C6.38478 16.198 6.49515 16.1219 6.61718 16.0695C6.7392 16.0171 6.87043 15.9896 7.00321 15.9885C7.13599 15.9874 7.26766 16.0127 7.39053 16.0631C7.51341 16.1134 7.62504 16.1877 7.7189 16.2816C7.81276 16.3755 7.88697 16.4872 7.93721 16.6101C7.98744 16.733 8.0127 16.8647 8.0115 16.9975C8.0103 17.1303 7.98267 17.2615 7.93021 17.3835C7.87776 17.5055 7.80154 17.6158 7.706 17.708L3.414 22ZM22 20.586V17C22 16.7348 22.1054 16.4804 22.2929 16.2929C22.4804 16.1054 22.7348 16 23 16C23.2652 16 23.5196 16.1054 23.7071 16.2929C23.8946 16.4804 24 16.7348 24 17V23C24 23.2652 23.8946 23.5196 23.7071 23.7071C23.5196 23.8946 23.2652 24 23 24H17C16.7348 24 16.4804 23.8946 16.2929 23.7071C16.1054 23.5196 16 23.2652 16 23C16 22.7348 16.1054 22.4804 16.2929 22.2929C16.4804 22.1054 16.7348 22 17 22H20.586L16.2935 17.7075C16.198 17.6152 16.1219 17.5048 16.0695 17.3828C16.0171 17.2608 15.9896 17.1296 15.9885 16.9968C15.9874 16.864 16.0127 16.7323 16.0631 16.6095C16.1134 16.4866 16.1877 16.375 16.2816 16.2811C16.3755 16.1872 16.4872 16.113 16.6101 16.0628C16.733 16.0126 16.8647 15.9873 16.9975 15.9885C17.1303 15.9897 17.2615 16.0173 17.3835 16.0698C17.5055 16.1222 17.6158 16.1985 17.708 16.294L22 20.586Z" fill="#6B717D"/>
</svg>