<svg xmlns="http://www.w3.org/2000/svg" width="28" height="28" viewBox="0 0 28 28" fill="none">
  <path d="M25.9654 14.2632C25.8421 13.7884 25.4051 13.4383 24.885 13.4383C24.271 13.4383 23.7697 13.9316 23.7697 14.5391V22.2579C23.7697 22.5603 23.5177 22.807 23.2094 22.807H4.78847C4.48016 22.807 4.22815 22.5603 4.22815 22.2579V8.76983C4.22815 8.46744 4.48016 8.22076 4.78847 8.22076H10.6491C11.263 8.22076 11.7643 7.72739 11.7643 7.11996C11.7643 6.51784 11.2657 6.02447 10.6517 6.01917C10.6357 6.01917 10.6169 6.01916 10.6008 6.02182H10.5901L10.574 6.02447C10.5606 6.02712 10.5472 6.02978 10.5365 6.03243H4.79919C3.263 6.03243 2.01367 7.26585 2.01367 8.78309V22.2685C2.01367 23.7857 3.263 25.0192 4.79919 25.0192H23.2281C24.7643 25.0192 26.0137 23.7857 26.0137 22.2685V14.2632H25.9654Z" fill="#6B717D"/>
  <path d="M11.1113 17.4098C11.048 17.5591 11.0137 17.7139 11.0137 17.866C11.0111 18.173 11.1245 18.4606 11.3304 18.679C11.5388 18.8975 11.8132 19.0192 12.1088 19.0192C12.5521 19.0192 12.932 18.7426 13.1009 18.3195H13.1405L13.2065 17.9822C13.4387 16.7876 13.8477 15.6427 14.4176 14.5781C14.9929 13.5052 15.7211 12.5373 16.584 11.6994C18.154 10.173 20.0618 9.16642 22.1411 8.75715L20.9827 9.97665C20.5579 10.4274 20.5579 11.1574 20.9853 11.6026C21.1938 11.8211 21.4708 11.9428 21.7637 11.9428C22.0566 11.9428 22.3311 11.8239 22.5369 11.6054L25.6954 8.29535C26.1202 7.84461 26.1202 7.11457 25.6927 6.66936L22.5369 3.35377C22.3311 3.13807 22.054 3.01917 21.7611 3.01917C21.4682 3.01917 21.1938 3.13807 20.9853 3.35653C20.5605 3.80727 20.5605 4.53731 20.9853 4.98252L22.3258 6.39006C16.7634 7.21965 12.2988 11.5778 11.1113 17.4098Z" fill="#6B717D"/>
</svg>