<svg xmlns="http://www.w3.org/2000/svg" width="28" height="28" viewBox="0 0 28 28" fill="none">
  <path d="M12.8601 1C15.0987 0.999963 17.2916 1.63346 19.1853 2.82725C21.079 4.02104 22.5961 5.72639 23.5614 7.74614C24.5267 9.7659 24.9006 12.0176 24.64 14.2409C24.3794 16.4643 23.4949 18.5685 22.0888 20.3103L26.6619 24.8817C26.8844 25.1205 27.0056 25.4363 26.9998 25.7626C26.994 26.089 26.8619 26.4003 26.6311 26.6311C26.4003 26.8619 26.0889 26.994 25.7626 26.9998C25.4363 27.0056 25.1205 26.8844 24.8817 26.6619L20.3102 22.0888C18.834 23.2805 17.0935 24.1006 15.2348 24.4804C13.376 24.8602 11.4533 24.7886 9.62794 24.2715C7.8026 23.7545 6.12793 22.8071 4.7445 21.5089C3.36107 20.2107 2.30924 18.5996 1.67731 16.8108C1.04538 15.022 0.851779 13.1078 1.11277 11.2287C1.37375 9.34956 2.08171 7.56048 3.17721 6.01161C4.27272 4.46273 5.72379 3.19925 7.40865 2.32721C9.0935 1.45518 10.963 1.00004 12.8601 1ZM12.8601 3.51917C11.6334 3.51917 10.4187 3.76078 9.28541 4.23022C8.15209 4.69965 7.12232 5.38771 6.25492 6.25511C5.38751 7.12251 4.69944 8.15226 4.23001 9.28557C3.76057 10.4189 3.51895 11.6336 3.51895 12.8603C3.51895 14.0869 3.76057 15.3016 4.23001 16.4349C4.69944 17.5682 5.38751 18.598 6.25492 19.4654C7.12232 20.3328 8.15209 21.0209 9.28541 21.4903C10.4187 21.9597 11.6334 22.2013 12.8601 22.2013C15.3376 22.2013 17.7135 21.2172 19.4653 19.4654C21.2171 17.7136 22.2013 15.3377 22.2013 12.8603C22.2013 10.3828 21.2171 8.0069 19.4653 6.25511C17.7135 4.50332 15.3376 3.51917 12.8601 3.51917ZM16.602 11.6007C16.936 11.6007 17.2564 11.7334 17.4926 11.9696C17.7289 12.2058 17.8616 12.5262 17.8616 12.8603C17.8616 13.1943 17.7289 13.5147 17.4926 13.7509C17.2564 13.9871 16.936 14.1198 16.602 14.1198H9.11828C8.78421 14.1198 8.46383 13.9871 8.22761 13.7509C7.99139 13.5147 7.85868 13.1943 7.85868 12.8603C7.85868 12.5262 7.99139 12.2058 8.22761 11.9696C8.46383 11.7334 8.78421 11.6007 9.11828 11.6007H16.602Z" fill="#C6CCD7"/>
</svg>