<svg xmlns="http://www.w3.org/2000/svg" width="28" height="28" viewBox="0 0 28 28" fill="none">
  <path d="M6.6715 26C5.16882 25.9991 3.72784 25.3869 2.66464 24.2978C1.60143 23.2086 1.0028 21.7314 1.00005 20.1902V12.2845C0.994049 10.7524 1.58089 9.28041 2.6318 8.19156C3.68271 7.1027 5.11185 6.4859 6.60563 6.4765H6.7079C6.75369 6.47042 6.7973 6.45279 6.83481 6.42517C6.87232 6.39756 6.90257 6.36083 6.92283 6.31828L7.56243 4.93517L8.06336 3.88273C8.31639 3.31892 8.72219 2.84166 9.23236 2.50785C9.74253 2.17404 10.3355 1.99777 10.9407 2.00007H17.0593C17.6644 1.99608 18.2578 2.17104 18.7684 2.50399C19.279 2.83694 19.6852 3.31377 19.9384 3.87739C20.0129 4.02851 20.1117 4.21695 20.2417 4.5085L21.0789 6.31294C21.1044 6.36471 21.1441 6.40773 21.193 6.43678C21.242 6.46582 21.2981 6.47962 21.3545 6.4765H21.6301C23.0807 6.55356 24.4468 7.19933 25.4463 8.28029C26.4457 9.36126 27.0019 10.7948 27 12.2845V20.1902C26.9977 21.7313 26.3995 23.2085 25.3365 24.2976C24.2736 25.3868 22.8328 25.9991 21.3303 26H6.6715ZM9.79149 4.78406C9.71349 4.9405 9.61816 5.13961 9.50029 5.3885L8.67696 7.16628C8.51216 7.52026 8.26171 7.82505 7.94949 8.0516C7.63727 8.27816 7.27367 8.41893 6.89337 8.46049L6.6715 8.47294C5.68555 8.47341 4.74003 8.87496 4.04237 9.58951C3.34471 10.3041 2.95188 11.2733 2.95004 12.2845V20.1902C2.95188 21.2015 3.34471 22.1707 4.04237 22.8852C4.74003 23.5998 5.68555 24.0013 6.6715 24.0018H21.3285C22.3145 24.0013 23.26 23.5998 23.9577 22.8852C24.6553 22.1707 25.0482 21.2015 25.05 20.1902V12.2845C25.0532 11.3113 24.6922 10.3739 24.0414 9.66569C23.3906 8.95749 22.4995 8.53246 21.5521 8.47827L21.1309 8.46405C20.7444 8.42805 20.3736 8.28946 20.0551 8.06191C19.7366 7.83437 19.4813 7.5257 19.3144 7.16628L18.4061 5.21072L18.1981 4.78228C18.1071 4.5476 17.9485 4.34691 17.7435 4.20687C17.5386 4.06684 17.2969 3.99408 17.0507 3.99828H10.9546C10.7069 3.99276 10.4636 4.06509 10.2573 4.20556C10.0509 4.34602 9.89139 4.5479 9.80016 4.78406H9.79149ZM14 21.0062C12.647 21.003 11.3503 20.4504 10.3934 19.4693C9.43652 18.4882 8.89729 17.1584 8.89363 15.7707C8.88851 15.0861 9.01665 14.4074 9.27053 13.7743C9.52441 13.1412 9.89894 12.5664 10.3722 12.0836C10.8461 11.591 11.4111 11.2001 12.034 10.934C12.6569 10.6678 13.3252 10.5316 14 10.5334H14.2687C15.6061 10.5943 16.8668 11.1913 17.7795 12.1959C18.6921 13.2005 19.1837 14.5325 19.1485 15.9051C19.1133 17.2778 18.5541 18.5813 17.5912 19.5354C16.6283 20.4894 15.3388 21.0176 14 21.0062ZM13.7955 12.5316C12.9986 12.5931 12.2534 12.9595 11.7076 13.5582C11.1618 14.1568 10.8553 14.944 10.8488 15.7636C10.8499 16.403 11.0357 17.0278 11.3828 17.5589C11.73 18.09 12.2229 18.5037 12.7992 18.7476C13.3755 18.9914 14.0094 19.0546 14.6207 18.9291C15.232 18.8036 15.7933 18.495 16.2337 18.0424C16.674 17.5897 16.9736 17.0133 17.0947 16.3861C17.2157 15.7588 17.1527 15.1088 16.9137 14.5183C16.6746 13.9277 16.2702 13.4231 15.7516 13.0682C15.233 12.7134 14.6235 12.5241 14 12.5245L13.7955 12.5316ZM20.3735 12.6471C20.2392 12.6316 20.1079 12.5963 19.9835 12.5423C19.8269 12.4733 19.685 12.3737 19.5657 12.2489C19.3338 11.9989 19.2031 11.6678 19.2 11.3227C19.1995 11.1423 19.2355 10.9637 19.3057 10.7983C19.3773 10.627 19.4816 10.4723 19.6125 10.3432C19.7302 10.2359 19.8635 10.1483 20.0077 10.0836C20.2443 9.98882 20.5023 9.96541 20.7514 10.0161C21.0004 10.0668 21.2302 10.1896 21.4135 10.3698C21.5151 10.4727 21.5984 10.5931 21.6596 10.7254L21.6908 10.8036C21.7628 10.9716 21.7994 11.1534 21.7983 11.3369C21.7956 11.6891 21.6594 12.0263 21.4187 12.2774C21.2063 12.4964 20.9263 12.6328 20.6265 12.6631H20.4983L20.3735 12.6471Z" fill="#6B717D"/>
</svg>