<svg xmlns="http://www.w3.org/2000/svg" width="20" height="20" viewBox="0 0 20 20" fill="none">
  <g clip-path="url(#clip0_256_6461)">
    <path d="M13.8111 12.2458H15.4495C15.9184 12.2458 16.2998 11.8644 16.2998 11.3955C16.2998 10.9266 15.9184 10.5452 15.4495 10.5452H13.8111C13.3422 10.5452 12.9608 10.9266 12.9608 11.3955C12.9608 11.8644 13.3422 12.2458 13.8111 12.2458ZM9.15574 12.2458H10.7942C11.2631 12.2458 11.6444 11.8644 11.6444 11.3955C11.6444 10.9266 11.2631 10.5452 10.7942 10.5452H9.15574C8.68681 10.5452 8.30545 10.9266 8.30545 11.3955C8.30263 11.8644 8.68399 12.2458 9.15574 12.2458ZM4.49755 12.2458H6.13596C6.60489 12.2458 6.98625 11.8644 6.98625 11.3955C6.98625 10.9266 6.60489 10.5452 6.13596 10.5452H4.49755C4.02862 10.5452 3.64726 10.9266 3.64726 11.3955C3.64726 11.8644 4.02862 12.2458 4.49755 12.2458ZM13.8111 15.2684H15.4495C15.9184 15.2684 16.2998 14.887 16.2998 14.4181C16.2998 13.9492 15.9184 13.5678 15.4495 13.5678H13.8111C13.3422 13.5678 12.9608 13.9492 12.9608 14.4181C12.9608 14.887 13.3422 15.2684 13.8111 15.2684ZM9.15574 15.2684H10.7942C11.2631 15.2684 11.6444 14.887 11.6444 14.4181C11.6444 13.9492 11.2631 13.5678 10.7942 13.5678H9.15574C8.68681 13.5678 8.30545 13.9492 8.30545 14.4181C8.30263 14.887 8.68399 15.2684 9.15574 15.2684ZM4.49755 15.2684H6.13596C6.60489 15.2684 6.98625 14.887 6.98625 14.4181C6.98625 13.9492 6.60489 13.5678 6.13596 13.5678H4.49755C4.02862 13.5678 3.64726 13.9492 3.64726 14.4181C3.64726 14.887 4.02862 15.2684 4.49755 15.2684Z" fill="black" stroke="white" stroke-width="0.3"/>
    <path d="M2.46617 2.74012H5.16391V1.44351C5.16391 0.974587 5.54527 0.593231 6.01419 0.593231C6.48312 0.593231 6.86447 0.974587 6.86447 1.44351V2.74012H13.3616V1.44351C13.3616 0.974587 13.743 0.593231 14.2119 0.593231C14.6809 0.593231 15.0622 0.974587 15.0622 1.44351V2.74012H17.4831C18.839 2.74012 19.9492 3.85029 19.9492 5.20623V17.2825C19.9492 18.6384 18.839 19.7486 17.4831 19.7486H2.46334C1.10741 19.7486 -0.00275803 18.6384 -0.00275803 17.2825V5.2034C6.86646e-05 3.85029 1.11024 2.74012 2.46617 2.74012ZM16.743 4.44351H15.0679V4.94069C15.0679 5.40962 14.6865 5.79097 14.2176 5.79097C13.7487 5.79097 13.3673 5.40962 13.3673 4.94069V4.44351H6.87012V4.94069C6.87012 5.40962 6.48877 5.79097 6.01984 5.79097C5.55091 5.79097 5.16956 5.40962 5.16956 4.94069V4.44351H3.21193C2.38425 4.44351 1.70911 5.11865 1.70911 5.94634V6.81357H18.2458V5.94634C18.2458 5.11865 17.5679 4.44351 16.743 4.44351ZM3.20628 18.0424H16.743C17.5707 18.0424 18.2458 17.3672 18.2458 16.5396V8.51696H1.70346V16.5396C1.70346 17.3672 2.3786 18.0424 3.20628 18.0424Z" fill="black" stroke="white" stroke-width="0.3"/>
  </g>
  <defs>
    <clipPath id="clip0_256_6461">
      <rect width="20" height="20" fill="white" transform="matrix(-1 0 0 1 20 0)"/>
    </clipPath>
  </defs>
</svg>