<svg xmlns="http://www.w3.org/2000/svg" width="26" height="26" viewBox="0 0 26 26" fill="none">
  <path d="M12.1641 15.691H13.8355C14.2812 15.691 14.6712 15.2815 14.6712 14.8135C14.6712 14.5795 14.5598 14.3455 14.4484 14.17C14.2812 13.9945 14.0584 13.8776 13.8355 13.936H12.1641C11.9412 13.936 11.7184 14.053 11.5512 14.17C11.3841 14.3455 11.3284 14.5795 11.3284 14.8135C11.3284 15.2815 11.7184 15.691 12.1641 15.691ZM12.1641 19.318H13.8355C14.2812 19.318 14.6712 18.9085 14.6712 18.4405C14.6712 18.2065 14.6155 17.9725 14.4484 17.797C14.2812 17.6215 14.0584 17.5045 13.8355 17.563H12.1641C11.9412 17.563 11.7184 17.68 11.5512 17.797C11.3841 17.9725 11.3284 18.2065 11.3284 18.4405C11.3284 18.9085 11.7184 19.318 12.1641 19.318ZM21.3569 3.11355H18.0141V2.23605C18.0141 2.00205 17.9027 1.76805 17.7912 1.59255C17.6798 1.41705 17.4012 1.30005 17.1784 1.30005C16.9555 1.30005 16.7327 1.41705 16.5655 1.53405C16.4541 1.76805 16.3427 2.00205 16.3427 2.23605V3.11355H9.65695V2.23605C9.65695 2.00205 9.54552 1.76805 9.43409 1.59255C9.26695 1.41705 9.04409 1.30005 8.82123 1.30005C8.59838 1.30005 8.37552 1.41705 8.20838 1.53405C8.04123 1.65105 7.98552 2.00205 7.98552 2.23605V3.11355H4.64266C2.80409 3.11355 1.2998 4.75155 1.2998 6.68205V21.073C1.2998 23.062 2.80409 24.7 4.64266 24.7H21.3569C23.1955 24.7 24.6998 23.062 24.6998 21.1315V6.68205C24.6998 4.75155 23.1955 3.11355 21.3569 3.11355ZM23.0284 21.073C23.0284 22.0675 22.3041 22.8865 21.3569 22.8865H4.64266C3.69552 22.8865 2.97123 22.0675 2.97123 21.073V10.309H23.0284V21.073ZM23.0284 8.49555H2.97123V6.68205C2.97123 5.68755 3.69552 4.86855 4.64266 4.86855H7.98552V5.74605C7.98552 6.27255 8.37552 6.62355 8.82123 6.62355C9.26695 6.62355 9.65695 6.21405 9.65695 5.74605V4.92705H16.3427V5.80455C16.3427 6.33105 16.7327 6.68205 17.1784 6.68205C17.6241 6.68205 18.0141 6.27255 18.0141 5.80455V4.92705H21.3569C22.3041 4.92705 23.0284 5.74605 23.0284 6.74055V8.49555ZM7.1498 19.318H8.82123C9.26695 19.318 9.65695 18.9085 9.65695 18.4405C9.65695 18.2065 9.60123 17.9725 9.43409 17.797C9.26695 17.6215 9.04409 17.5045 8.82123 17.563H7.1498C6.92695 17.563 6.70409 17.68 6.53695 17.797C6.3698 17.9725 6.31409 18.2065 6.31409 18.4405C6.31409 18.9085 6.70409 19.318 7.1498 19.318ZM17.1784 15.691H18.8498C19.2955 15.691 19.6855 15.2815 19.6855 14.8135C19.6855 14.5795 19.5741 14.3455 19.4627 14.17C19.2955 13.9945 19.0727 13.8776 18.8498 13.936H17.1784C16.9555 13.936 16.7327 14.053 16.5655 14.17C16.3984 14.3455 16.3427 14.5795 16.3427 14.8135C16.3427 15.2815 16.7327 15.691 17.1784 15.691ZM7.1498 15.691H8.82123C9.26695 15.691 9.65695 15.2815 9.65695 14.8135C9.65695 14.5795 9.54552 14.3455 9.43409 14.17C9.26695 13.9945 9.04409 13.8776 8.82123 13.936H7.1498C6.92695 13.936 6.70409 14.053 6.53695 14.17C6.3698 14.3455 6.31409 14.5795 6.31409 14.8135C6.31409 15.2815 6.70409 15.691 7.1498 15.691ZM17.1784 19.318H18.8498C19.2955 19.318 19.6855 18.9085 19.6855 18.4405C19.6855 18.2065 19.6298 17.9725 19.4627 17.797C19.2955 17.6215 19.0727 17.5045 18.8498 17.563H17.1784C16.9555 17.563 16.7327 17.68 16.5655 17.797C16.3984 17.9725 16.3427 18.2065 16.3427 18.4405C16.3427 18.9085 16.7327 19.318 17.1784 19.318Z" fill="#09090B" stroke="black" stroke-width="0.3"/>
</svg>