<svg xmlns="http://www.w3.org/2000/svg" width="24" height="24" viewBox="0 0 24 24" fill="none">
  <path d="M11.0147 14.541H12.6861C13.1318 14.541 13.5218 14.1315 13.5218 13.6635C13.5218 13.4295 13.4104 13.1955 13.299 13.02C13.1318 12.8445 12.909 12.7275 12.6861 12.786H11.0147C10.7918 12.786 10.569 12.903 10.4018 13.02C10.2347 13.1955 10.179 13.4295 10.179 13.6635C10.179 14.1315 10.569 14.541 11.0147 14.541ZM11.0147 18.168H12.6861C13.1318 18.168 13.5218 17.7585 13.5218 17.2905C13.5218 17.0565 13.4661 16.8225 13.299 16.647C13.1318 16.4715 12.909 16.3545 12.6861 16.413H11.0147C10.7918 16.413 10.569 16.53 10.4018 16.647C10.2347 16.8225 10.179 17.0565 10.179 17.2905C10.179 17.7585 10.569 18.168 11.0147 18.168ZM20.2075 1.96352H16.8647V1.08602C16.8647 0.852024 16.7532 0.618024 16.6418 0.442524C16.5304 0.267024 16.2518 0.150024 16.029 0.150024C15.8061 0.150024 15.5832 0.267024 15.4161 0.384024C15.3047 0.618024 15.1932 0.852024 15.1932 1.08602V1.96352H8.50753V1.08602C8.50753 0.852024 8.3961 0.618024 8.28468 0.442524C8.11753 0.267024 7.89468 0.150024 7.67182 0.150024C7.44896 0.150024 7.2261 0.267024 7.05896 0.384024C6.89182 0.501024 6.8361 0.852024 6.8361 1.08602V1.96352H3.49325C1.65468 1.96352 0.150391 3.60152 0.150391 5.53202V19.923C0.150391 21.912 1.65468 23.55 3.49325 23.55H20.2075C22.0461 23.55 23.5504 21.912 23.5504 19.9815V5.53202C23.5504 3.60152 22.0461 1.96352 20.2075 1.96352ZM21.879 19.923C21.879 20.9175 21.1547 21.7365 20.2075 21.7365H3.49325C2.5461 21.7365 1.82182 20.9175 1.82182 19.923V9.15903H21.879V19.923ZM21.879 7.34552H1.82182V5.53202C1.82182 4.53752 2.5461 3.71852 3.49325 3.71852H6.8361V4.59602C6.8361 5.12252 7.2261 5.47352 7.67182 5.47352C8.11753 5.47352 8.50753 5.06402 8.50753 4.59602V3.77702H15.1932V4.65452C15.1932 5.18102 15.5832 5.53202 16.029 5.53202C16.4747 5.53202 16.8647 5.12252 16.8647 4.65452V3.77702H20.2075C21.1547 3.77702 21.879 4.59602 21.879 5.59052V7.34552ZM6.00039 18.168H7.67182C8.11753 18.168 8.50753 17.7585 8.50753 17.2905C8.50753 17.0565 8.45182 16.8225 8.28468 16.647C8.11753 16.4715 7.89468 16.3545 7.67182 16.413H6.00039C5.77753 16.413 5.55468 16.53 5.38753 16.647C5.22039 16.8225 5.16468 17.0565 5.16468 17.2905C5.16468 17.7585 5.55468 18.168 6.00039 18.168ZM16.029 14.541H17.7004C18.1461 14.541 18.5361 14.1315 18.5361 13.6635C18.5361 13.4295 18.4247 13.1955 18.3132 13.02C18.1461 12.8445 17.9232 12.7275 17.7004 12.786H16.029C15.8061 12.786 15.5832 12.903 15.4161 13.02C15.249 13.1955 15.1932 13.4295 15.1932 13.6635C15.1932 14.1315 15.5832 14.541 16.029 14.541ZM6.00039 14.541H7.67182C8.11753 14.541 8.50753 14.1315 8.50753 13.6635C8.50753 13.4295 8.3961 13.1955 8.28468 13.02C8.11753 12.8445 7.89468 12.7275 7.67182 12.786H6.00039C5.77753 12.786 5.55468 12.903 5.38753 13.02C5.22039 13.1955 5.16468 13.4295 5.16468 13.6635C5.16468 14.1315 5.55468 14.541 6.00039 14.541ZM16.029 18.168H17.7004C18.1461 18.168 18.5361 17.7585 18.5361 17.2905C18.5361 17.0565 18.4804 16.8225 18.3132 16.647C18.1461 16.4715 17.9232 16.3545 17.7004 16.413H16.029C15.8061 16.413 15.5832 16.53 15.4161 16.647C15.249 16.8225 15.1932 17.0565 15.1932 17.2905C15.1932 17.7585 15.5832 18.168 16.029 18.168Z" fill="#1C64F2" stroke="#1C64F2" stroke-width="0.3"/>
</svg>