<svg xmlns="http://www.w3.org/2000/svg" width="10" height="12" viewBox="0 0 10 12" fill="none">
  <path d="M9.23529 0.947368H7.11765C7.11765 0.505263 6.82353 0 6.35294 0H3.88235C3.47059 0 3.17647 0.505263 3.17647 0.947368H1C0.529412 0.947368 -1.09145e-08 0.947368 0 1.45263V2.21053H10V1.45263C10 0.947368 9.70588 0.947368 9.23529 0.947368ZM0.882353 3.15789V10.3579C0.882353 11.1158 1.58824 12 2.35294 12H7.94118C8.70588 12 9.11765 11.0526 9.11765 10.3579V3.15789H0.882353ZM3.23529 10.5474H2.35294V4.10526H3.17647V10.5474H3.23529ZM5.41176 10.5474H4.52941V4.10526H5.35294V10.5474H5.41176ZM7.58823 10.5474H6.76471V4.10526H7.58823V10.5474Z" fill="#CCCFD4"/>
</svg>