<svg xmlns="http://www.w3.org/2000/svg" width="18" height="18" viewBox="0 0 18 18" fill="none">
  <path d="M9 0C13.9707 0 18 4.0293 18 9C18 13.9707 13.9707 18 9 18C4.0293 18 0 13.9707 0 9C0 4.0293 4.0293 0 9 0ZM9 11.7C8.70163 11.7 8.41548 11.8185 8.2045 12.0295C7.99353 12.2405 7.875 12.5266 7.875 12.825C7.875 13.1234 7.99353 13.4095 8.2045 13.6205C8.41548 13.8315 8.70163 13.95 9 13.95C9.29837 13.95 9.58452 13.8315 9.79549 13.6205C10.0065 13.4095 10.125 13.1234 10.125 12.825C10.125 12.5266 10.0065 12.2405 9.79549 12.0295C9.58452 11.8185 9.29837 11.7 9 11.7ZM9 4.05C8.7613 4.05 8.53239 4.14482 8.3636 4.3136C8.19482 4.48239 8.1 4.7113 8.1 4.95V9.45C8.1 9.68869 8.19482 9.91761 8.3636 10.0864C8.53239 10.2552 8.7613 10.35 9 10.35C9.23869 10.35 9.46761 10.2552 9.63639 10.0864C9.80518 9.91761 9.9 9.68869 9.9 9.45V4.95C9.9 4.7113 9.80518 4.48239 9.63639 4.3136C9.46761 4.14482 9.23869 4.05 9 4.05Z" fill="#F0534B"/>
</svg>