<svg xmlns="http://www.w3.org/2000/svg" width="18" height="18" viewBox="0 0 18 18" fill="none">
  <path d="M8.54627 8.55098e-07C3.825 0.00191232 -0.000573376 3.8302 6.44591e-08 8.55115C0.000573505 13.2721 3.82767 17.0994 8.54876 17.1C13.2698 17.1006 17.0977 13.2748 17.1 8.55363C17.1005 7.4302 16.8796 6.31769 16.4499 5.27969C16.0202 4.24169 15.3901 3.29855 14.5957 2.50417C13.8013 1.70979 12.8582 1.07976 11.8202 0.65008C10.7822 0.2204 9.66969 -0.000501563 8.54627 8.55098e-07ZM13.4531 6.33384L7.91989 11.8632C7.84772 11.9376 7.76133 11.9968 7.66585 12.0372C7.57036 12.0776 7.46773 12.0985 7.36404 12.0985C7.26035 12.0985 7.15772 12.0776 7.06224 12.0372C6.96675 11.9968 6.88036 11.9376 6.80819 11.8632L3.62449 8.67979C3.47704 8.53234 3.39421 8.33236 3.39421 8.12384C3.39421 7.91532 3.47704 7.71534 3.62449 7.56789C3.77193 7.42044 3.97191 7.33761 4.18043 7.33761C4.38895 7.33761 4.58893 7.42044 4.73638 7.56789L7.37513 10.2067L12.3562 5.24412C12.429 5.17023 12.5157 5.11148 12.6113 5.07126C12.7069 5.03103 12.8096 5.01013 12.9133 5.00976C13.017 5.00938 13.1198 5.02954 13.2157 5.06907C13.3116 5.10859 13.3988 5.16671 13.4721 5.24007C13.5455 5.31343 13.6036 5.40057 13.6431 5.49649C13.6826 5.5924 13.7027 5.69519 13.7023 5.79893C13.7019 5.90266 13.681 6.00529 13.6408 6.1009C13.6005 6.19651 13.5418 6.28322 13.4679 6.35602L13.4531 6.33384Z" fill="#1AC011"/>
</svg>