<svg xmlns="http://www.w3.org/2000/svg" width="12" height="12" viewBox="0 0 12 12" fill="none">
  <g clip-path="url(#clip0_525_3737)">
    <path d="M1.10081 11.9999C0.86748 11.9999 0.634146 11.7999 0.634146 11.5666L0.334146 8.43327C0.16748 7.83327 0.66748 7.29994 0.900813 6.99994L6.66748 0.499941C6.86748 0.233274 7.20081 0.0666079 7.56748 0.0332745C7.96748 -0.0333921 8.33415 0.0999412 8.66748 0.333275L11.0341 2.46661C11.3341 2.73327 11.4675 3.06661 11.5008 3.43327C11.5341 3.79994 11.4008 4.16661 11.1341 4.46661L9.73415 6.09994C9.60081 6.23327 9.33415 6.56661 9.06748 6.89994C8.80081 7.23327 8.50081 7.53327 8.40081 7.69994L5.13415 11.2666C4.80081 11.5666 4.43415 11.8333 4.06748 11.7999L1.10081 11.9999ZM7.73415 0.966608H7.70081C7.60081 0.966608 7.50081 0.999941 7.40081 1.13327L1.63415 7.63327C1.36748 7.93327 1.26748 8.09994 1.26748 8.16661C1.26748 8.19994 1.30081 8.23327 1.30081 8.26661L1.53415 10.9999L4.00081 10.8333H4.06748C4.10081 10.8333 4.20081 10.7666 4.43415 10.5666L4.70081 10.2999L7.63415 7.06661C7.76748 6.93327 8.03415 6.59994 8.30081 6.29994C8.56748 5.96661 8.86748 5.63327 9.00081 5.49994L10.4008 3.86661C10.5008 3.76661 10.5341 3.66661 10.5341 3.53327C10.5341 3.39994 10.4675 3.29994 10.3675 3.19994L8.00081 1.06661C7.93415 0.999941 7.83415 0.966608 7.73415 0.966608Z" fill="#1C64F2"/>
    <path d="M9.66667 5.66668C9.56667 5.66668 9.43333 5.63335 9.36667 5.53335L9.26667 5.46668C7.43333 3.86668 6.3 2.90002 5.9 2.53335C5.7 2.33335 5.7 2.03335 5.9 1.83335C6.1 1.63335 6.4 1.63335 6.6 1.83335C6.96667 2.20002 8.13333 3.20002 9.9 4.73335L10 4.80002C10.2 4.96668 10.2333 5.26668 10.0667 5.46668C9.93333 5.63335 9.8 5.66668 9.66667 5.66668Z" fill="#1C64F2"/>
  </g>
  <defs>
    <clipPath id="clip0_525_3737">
      <rect width="12" height="12" fill="white"/>
    </clipPath>
  </defs>
</svg>