<svg xmlns="http://www.w3.org/2000/svg" width="15" height="15" viewBox="0 0 15 15" fill="none">
  <path d="M5.91927 5.92025C5.72277 6.10335 5.56517 6.32415 5.45585 6.56948C5.34654 6.81481 5.28776 7.07965 5.28303 7.34819C5.27829 7.61673 5.32769 7.88347 5.42828 8.13251C5.52887 8.38154 5.67858 8.60777 5.8685 8.79768C6.05842 8.9876 6.28464 9.13732 6.53368 9.23791C6.78271 9.3385 7.04946 9.3879 7.318 9.38316C7.58654 9.37842 7.85137 9.31964 8.09671 9.21033C8.34204 9.10102 8.56284 8.94341 8.74594 8.74691M6.486 2.72033C6.76688 2.68533 7.04963 2.66752 7.33267 2.66699C11.9993 2.66699 13.9993 7.33366 13.9993 7.33366C13.7013 7.97174 13.3275 8.57161 12.886 9.12033M3.73935 3.7404C2.41352 4.64348 1.3526 5.8839 0.666016 7.33373C0.666016 7.33373 2.66602 12.0004 7.33268 12.0004C8.60996 12.0038 9.85987 11.6305 10.926 10.9271M0.666016 0.666992L13.9993 14.0003" stroke="#18181B" stroke-width="1.33333" stroke-linecap="round" stroke-linejoin="round"/>
</svg>