<svg xmlns="http://www.w3.org/2000/svg" width="34" height="34" viewBox="0 0 34 34" fill="none">
  <path d="M16.7494 12.3951C15.5281 12.3951 14.3568 12.8802 13.4933 13.7438C12.6297 14.6074 12.1445 15.7786 12.1445 16.9999C12.1445 18.2212 12.6297 19.3925 13.4933 20.2561C14.3568 21.1196 15.5281 21.6048 16.7494 21.6048C17.9707 21.6048 19.142 21.1196 20.0055 20.2561C20.8691 19.3925 21.3543 18.2212 21.3543 16.9999C21.3543 15.7786 20.8691 14.6074 20.0055 13.7438C19.142 12.8802 17.9707 12.3951 16.7494 12.3951ZM14.2695 16.9999C14.2695 16.3422 14.5308 15.7115 14.9959 15.2464C15.4609 14.7813 16.0917 14.5201 16.7494 14.5201C17.4071 14.5201 18.0379 14.7813 18.5029 15.2464C18.968 15.7115 19.2293 16.3422 19.2293 16.9999C19.2293 17.6576 18.968 18.2884 18.5029 18.7535C18.0379 19.2185 17.4071 19.4798 16.7494 19.4798C16.0917 19.4798 15.4609 19.2185 14.9959 18.7535C14.5308 18.2884 14.2695 17.6576 14.2695 16.9999Z" fill="white" fill-opacity="0.9"/>
  <path d="M17.0002 7.4375C12.7183 7.4375 8.93583 9.7495 6.30508 11.9319C4.84501 13.1477 3.50248 14.498 2.29521 15.9651C2.21769 16.0599 2.14119 16.1556 2.06571 16.252L2.00408 16.3327L1.98708 16.354L1.98283 16.3604L1.98071 16.3646C1.8436 16.5485 1.76953 16.7717 1.76953 17.0011C1.76953 17.2304 1.8436 17.4536 1.98071 17.6375L1.98708 17.646L2.00408 17.6673L2.06571 17.748C2.11883 17.816 2.19321 17.9116 2.29521 18.0349C3.50186 19.5018 4.84367 20.8522 6.30296 22.0681C8.93796 24.2505 12.7183 26.5625 17.0002 26.5625C21.2821 26.5625 25.0625 24.2505 27.6953 22.0681C29.1546 20.8522 30.4964 19.5018 31.7031 18.0349L31.9326 17.748L31.9942 17.6673L32.0112 17.646L32.0155 17.6396L32.0176 17.6354C32.1547 17.4515 32.2288 17.2283 32.2288 16.9989C32.2288 16.7696 32.1547 16.5464 32.0176 16.3625L32.0112 16.354L31.9942 16.3327L31.9326 16.252C31.5831 15.8098 31.2196 15.3789 30.8425 14.96C30.1008 14.1355 29.0256 13.0347 27.6975 11.9319C25.0603 9.7495 21.28 7.4375 17.0002 7.4375ZM4.73683 17.6163C4.52858 17.3846 4.34796 17.1764 4.19921 17C5.2525 15.7581 6.41142 14.6099 7.66296 13.5681C10.1535 11.5005 13.4557 9.5625 16.9981 9.5625C20.5405 9.5625 23.8406 11.5005 26.3375 13.5681C27.5898 14.6098 28.7494 15.758 29.8033 17C28.7501 18.2419 27.5912 19.3901 26.3396 20.4319C23.8448 22.4995 20.5426 24.4375 17.0002 24.4375C13.4578 24.4375 10.1577 22.4995 7.66083 20.4319C6.42833 19.4119 5.42958 18.3855 4.73683 17.6184V17.6163Z" fill="white" fill-opacity="0.9"/>
</svg>