<svg xmlns="http://www.w3.org/2000/svg" width="326" height="40" viewBox="0 0 326 40" fill="none">
  <path d="M4.15148 39.4427H0V0.554514H17.1613C22.9748 0.554514 26.85 4.44319 26.85 9.72097V17.2211C26.85 22.4988 22.9748 26.3875 17.1613 26.3875H4.15148V39.4427ZM17.1613 4.16593H4.15148V22.7761H17.1613C20.2062 22.7761 22.6971 20.2765 22.6971 17.2211V9.72097C22.6971 6.66549 20.2062 4.16593 17.1613 4.16593ZM34.0464 30.8321V9.16646C34.0464 3.88867 37.9215 0 43.735 0H53.4237C59.2372 0 63.1124 3.88867 63.1124 9.16646V30.8321C63.1124 36.1099 59.2372 39.9986 53.4237 39.9986H43.735C37.9215 39.9986 34.0464 36.1099 34.0464 30.8321ZM58.9581 30.8321V9.16646C58.9581 6.11097 56.4672 3.61142 53.4223 3.61142H43.7336C40.6887 3.61142 38.1978 6.11097 38.1978 9.16646V30.8321C38.1978 33.8876 40.6887 36.3872 43.7336 36.3872H53.4223C56.4672 36.3872 58.9581 33.8876 58.9581 30.8321ZM73.0745 0.555929H77.226V35.8327H97.9862V39.4441H73.0745V0.554514V0.555929ZM116.256 27.4994V39.4427H112.104V27.4994L99.0942 2.2223V0.555929H103.246L114.041 23.0548H114.317L125.112 0.555929H129.264V2.2223L116.254 27.4994H116.256ZM146.704 4.16734V39.4441H142.553V4.16593H130.373V0.554514H158.884V3.05407L157.777 4.16451H146.706L146.704 4.16734ZM169.125 39.4441H164.974V0.554514H182.135C187.949 0.554514 191.824 4.44319 191.824 9.72097V14.9988C191.824 22.7761 184.35 23.888 184.35 23.888L192.93 37.7763V39.4427H188.779L180.198 24.1652H169.127V39.4427L169.125 39.4441ZM182.135 4.16734H169.125V20.5552H182.135C185.18 20.5552 187.671 18.0557 187.671 15.0002V9.72239C187.671 6.6669 185.18 4.16734 182.135 4.16734ZM200.127 30.8335V9.16787C200.127 3.89009 204.002 0.0014138 209.815 0.0014138H219.504C225.317 0.0014138 229.193 3.89009 229.193 9.16787V30.8335C229.193 36.1113 225.317 40 219.504 40H209.815C204.002 40 200.127 36.1113 200.127 30.8335ZM225.038 30.8335V9.16787C225.038 6.11239 222.547 3.61283 219.503 3.61283H209.814C206.769 3.61283 204.278 6.11239 204.278 9.16787V30.8335C204.278 33.889 206.769 36.3886 209.814 36.3886H219.503C222.547 36.3886 225.038 33.889 225.038 30.8335ZM261.853 39.4441L243.031 7.5015H242.755L243.309 14.7229V39.4441H239.158V0.554514H243.587L262.409 32.4971H262.685L262.131 25.2757V0.554514H266.283V39.4412H261.853V39.4441ZM275.139 34.1663H279.291V39.4441H275.139V34.1663ZM290.918 29.4444L287.597 39.4441H283.445V37.7777L297.009 0.557343H301.715L315.278 37.7777V39.4441H311.127L307.806 29.4444H290.921H290.918ZM306.419 25.833L299.499 5.55646H299.222L292.302 25.833H306.419ZM325.795 39.4441H321.643V0.554514H325.795V39.4412V39.4441Z" fill="#09090B"/>
</svg>