<svg xmlns="http://www.w3.org/2000/svg" width="20" height="19" viewBox="0 0 20 19" fill="none">
  <path d="M18.75 0.299988H1.25C0.5 0.299988 0 0.799988 0 1.54999C0 2.29999 0.5 2.79999 1.25 2.79999H18.75C19.5 2.79999 20 2.29999 20 1.54999C20 0.799988 19.5 0.299988 18.75 0.299988ZM1.25 7.79999H11.25C12 7.79999 12.5 7.29999 12.5 6.54999C12.5 5.79999 12 5.29999 11.25 5.29999H1.25C0.5 5.29999 0 5.79999 0 6.54999C0 7.29999 0.5 7.79999 1.25 7.79999ZM1.25 12.8H11.25C12 12.8 12.5 12.3 12.5 11.55C12.5 10.8 12 10.3 11.25 10.3H1.25C0.5 10.3 0 10.8 0 11.55C0 12.3 0.5 12.8 1.25 12.8ZM18.75 15.3H1.25C0.5 15.3 0 15.8 0 16.55C0 17.3 0.5 17.8 1.25 17.8H18.75C19.5 17.8 20 17.3 20 16.55C20 15.8 19.5 15.3 18.75 15.3ZM16 12.05L19.375 9.54999C19.75 9.29999 19.75 8.79999 19.375 8.54999L16 6.04999C15.625 5.79999 15 6.04999 15 6.54999V11.55C15 12.05 15.625 12.3 16 12.05Z" fill="#6B717D" stroke="#F5F5F5" stroke-width="0.6"/>
</svg>