<svg xmlns="http://www.w3.org/2000/svg" width="20" height="20" viewBox="0 0 20 20" fill="none">
  <path d="M13.2 9.19465C13.36 9.02841 13.6 8.86217 13.76 8.61282C14.72 7.44917 15.12 5.95304 14.88 4.3738C14.56 2.12961 12.88 0.384127 10.72 0.0516549C8.96 -0.197699 7.28 0.467246 6.16 1.79714C5.28 3.04391 4.8 4.54003 5.04 6.03616C5.28 7.28293 5.84 8.36347 6.8 9.19465C4 10.1921 2 12.935 2 16.0934V17.922C2 19.0857 2.88 20 4 20H16C17.12 20 18 19.0857 18 17.922V16.0934C18 12.935 16 10.1921 13.2 9.19465ZM7.44 2.96079C8.08 2.12961 9.04 1.71402 10 1.71402C10.16 1.71402 10.32 1.71402 10.56 1.79714C12 2.04649 13.12 3.29326 13.36 4.70627C13.52 5.7868 13.2 6.78422 12.56 7.53228C11.76 8.44658 10.64 8.94529 9.44 8.69594C8 8.44658 6.88 7.19981 6.64 5.7868C6.48 4.78939 6.8 3.70885 7.44 2.96079ZM16.4 17.922C16.4 18.1714 16.24 18.3376 16 18.3376H4C3.76 18.3376 3.6 18.1714 3.6 17.922V16.0934C3.6 12.935 6.08 10.4414 9.04 10.4414H10.88C13.92 10.4414 16.32 13.0181 16.32 16.0934V17.922H16.4Z" fill="#ffffff"/>
</svg>