<svg xmlns="http://www.w3.org/2000/svg" width="20" height="20" viewBox="0 0 20 20" fill="none">
  <path d="M9.99974 7.15931C10.6833 7.15931 11.3243 7.42564 11.8072 7.90859C12.2902 8.39153 12.5565 9.0325 12.5565 9.71608C12.5565 10.3997 12.2902 11.0406 11.8072 11.5236C11.3243 12.0065 10.6833 12.2728 9.99974 12.2728C9.31616 12.2728 8.6752 12.0065 8.19225 11.5236C7.70931 11.0406 7.44298 10.3997 7.44298 9.71608C7.44298 9.0325 7.70931 8.39153 8.19225 7.90859C8.6752 7.42564 9.31616 7.15931 9.99974 7.15931ZM9.99974 6.02298C7.95966 6.02298 6.30664 7.67599 6.30664 9.71608C6.30664 11.7562 7.95966 13.4092 9.99974 13.4092C12.0398 13.4092 13.6928 11.7562 13.6928 9.71608C13.6928 7.67599 12.0398 6.02298 9.99974 6.02298ZM10.5679 3.18213H9.43157C9.11908 3.18213 8.8634 3.43781 8.8634 3.7503C8.8634 4.06279 9.11908 4.31847 9.43157 4.31847H10.5679C10.8804 4.31847 11.1361 4.06279 11.1361 3.7503C11.1361 3.43781 10.8804 3.18213 10.5679 3.18213Z" fill="white" stroke="white" stroke-width="0.5"/>
  <path d="M17.67 8.57986C17.67 4.37008 14.2787 0.952189 10.0796 0.909577C5.829 0.866964 2.36849 4.26 2.32943 8.50884C2.29924 11.8184 4.36596 14.6504 7.28315 15.7548C7.72349 15.9217 8.01112 16.346 8.01112 16.8148V17.8126C8.01112 17.8907 7.9472 17.9547 7.86908 17.9547H6.5907C5.96394 17.9547 5.45436 18.4642 5.45436 19.091H14.5451C14.5451 18.4642 14.0355 17.9547 13.4087 17.9547H12.1304C12.0522 17.9547 11.9883 17.8907 11.9883 17.8126V16.8148C11.9883 16.3425 12.2813 15.9199 12.7216 15.753C15.6139 14.6539 17.67 11.8575 17.67 8.57986ZM10.7099 17.9547H9.2895C9.21138 17.9547 9.14746 17.8907 9.14746 17.8126V16.2022C9.42799 16.2342 9.71208 16.2502 9.99971 16.2502C10.2874 16.2502 10.5714 16.2342 10.852 16.2022V17.8126C10.852 17.8907 10.7881 17.9547 10.7099 17.9547ZM9.99971 15.1138C9.11728 15.1138 8.26147 14.9416 7.45716 14.6007C6.67947 14.2722 5.97992 13.7999 5.37979 13.1998C4.77966 12.5997 4.30737 11.9001 3.97889 11.1224C3.63799 10.3181 3.46577 9.4623 3.46577 8.57986C3.46577 7.69743 3.63799 6.84162 3.97889 6.03731C4.30737 5.25962 4.77966 4.56007 5.37979 3.95994C5.97992 3.35981 6.67947 2.88752 7.45716 2.55904C8.26147 2.21814 9.11728 2.04592 9.99971 2.04592C10.8822 2.04592 11.738 2.21814 12.5423 2.55904C13.32 2.88752 14.0195 3.35981 14.6196 3.95994C15.2198 4.56007 15.6921 5.25962 16.0205 6.03731C16.3614 6.84162 16.5337 7.69743 16.5337 8.57986C16.5337 9.4623 16.3614 10.3181 16.0205 11.1224C15.6921 11.9001 15.2198 12.5997 14.6196 13.1998C14.0195 13.7999 13.32 14.2722 12.5423 14.6007C11.738 14.9416 10.8822 15.1138 9.99971 15.1138Z" fill="white" stroke="white" stroke-width="0.5"/>
</svg>