<svg xmlns="http://www.w3.org/2000/svg" width="20" height="20" viewBox="0 0 20 20" fill="none">
  <path d="M5.52627 2.00049C5.34883 2.00054 5.17844 2.06825 5.0515 2.18916L2.53856 4.58166C2.36962 4.72423 2.2341 4.90055 2.14118 5.09868C2.04825 5.29681 2.00011 5.51211 2 5.72998V16.5085C2 17.304 2.64 18.0005 3.49333 18.0005H16.5067C17.36 18.0005 18 17.305 18 16.5085V5.72998C17.9998 5.51286 17.952 5.2983 17.8596 5.10075C17.7672 4.90319 17.6325 4.72723 17.4646 4.58472L14.9485 2.18814C14.8214 2.0676 14.651 2.00026 14.4737 2.00049H5.52627ZM15.1556 4.23798H4.84549L5.8034 3.32626H14.1966L15.1545 4.23798H15.1556ZM3.39085 5.62494L3.43268 5.58415C3.45056 5.57197 3.47156 5.56491 3.49333 5.56375H16.5067C16.5234 5.56375 16.5464 5.56987 16.5694 5.58415L16.6091 5.6229C16.6307 5.65456 16.6417 5.69198 16.6405 5.72998V16.5085C16.6405 16.6278 16.5527 16.6747 16.5067 16.6747H3.49333C3.44732 16.6747 3.35948 16.6278 3.35948 16.5085V5.72998C3.35853 5.69233 3.36948 5.6553 3.39085 5.62392V5.62494Z" fill="#6B717D" stroke="#6B717D" stroke-width="0.2"/>
  <path d="M8.18361 12.0605C8.11745 12.0042 8.04151 11.9604 7.95957 11.9315C7.78755 11.8706 7.59994 11.8699 7.42747 11.9295C7.34532 11.9577 7.26905 12.0008 7.20243 12.0565C7.13978 12.1087 7.08869 12.1735 7.0524 12.2465C7.01777 12.3165 6.99983 12.3935 7 12.4716C7.00017 12.5497 7.01845 12.6267 7.0534 12.6965C7.09056 12.769 7.14232 12.833 7.20543 12.8845L9.51084 14.8295C9.64722 14.9407 9.81796 15.0011 9.99393 15.0005H10.0059C10.1819 15.0014 10.3528 14.9409 10.489 14.8295L12.7944 12.8845C12.8576 12.8327 12.9094 12.7683 12.9465 12.6955C12.9813 12.6259 12.9996 12.5491 13 12.4712C13.0003 12.3934 12.9827 12.3165 12.9485 12.2465C12.9121 12.1735 12.861 12.1088 12.7984 12.0565C12.7315 12.0007 12.6549 11.9576 12.5724 11.9295C12.3999 11.8699 12.2123 11.8706 12.0403 11.9315C11.9584 11.9605 11.8824 12.0042 11.8163 12.0605L10.6911 13.0095V8.58354C10.6895 8.50418 10.6705 8.42613 10.6354 8.35493C10.6003 8.28373 10.55 8.22112 10.488 8.17154C10.3503 8.05933 10.1776 7.99884 9.99993 8.00054C9.82205 7.99841 9.64903 8.05854 9.51084 8.17054C9.4489 8.22032 9.39868 8.28314 9.36376 8.35452C9.32884 8.42589 9.31008 8.50409 9.30881 8.58354V13.0095L8.18561 12.0605H8.18361Z" fill="#6B717D" stroke="#6B717D" stroke-width="0.2"/>
</svg>