<svg xmlns="http://www.w3.org/2000/svg" width="20" height="20" viewBox="0 0 20 20" fill="none">
  <path d="M16.7365 10.7273L18.8463 14.3636L16.7365 18H12.484L10.375 14.3636L12.4847 10.7273H16.7372H16.7365ZM7.594 2C7.81635 1.99988 8.03375 2.06366 8.21875 2.18327L8.311 2.24945L10.2812 3.45455H17.875C18.1547 3.45456 18.4243 3.55558 18.6313 3.7379C18.8383 3.92023 18.9679 4.17079 18.9948 4.44073L19 4.54545V9.27273C18.9998 9.45809 18.9266 9.63639 18.7954 9.77118C18.6641 9.90597 18.4848 9.98708 18.294 9.99794C18.1031 10.0088 17.9152 9.9486 17.7686 9.82963C17.622 9.71065 17.5278 9.54189 17.5052 9.35782L17.5 9.27273V4.90909H10.1552C9.93315 4.90907 9.71603 4.8453 9.53125 4.72582L9.43825 4.65891L7.4695 3.45455H2.5V15.0909H9.25C9.4337 15.0909 9.611 15.1563 9.74828 15.2747C9.88556 15.3931 9.97326 15.5562 9.99475 15.7331L10 15.8182C9.99998 15.9963 9.93253 16.1682 9.81046 16.3014C9.68839 16.4345 9.52019 16.5195 9.33775 16.5404L9.25 16.5455H2.125C1.84534 16.5454 1.57571 16.4444 1.36869 16.2621C1.16166 16.0798 1.0321 15.8292 1.00525 15.5593L1 15.4545V3.09091C1.00001 2.81972 1.10419 2.55826 1.29221 2.35751C1.48024 2.15677 1.73863 2.03113 2.017 2.00509L2.125 2H7.59475H7.594ZM15.8597 12.1818H13.3622L12.0963 14.3636L13.3622 16.5455H15.8597L17.125 14.3636L15.8597 12.1818ZM14.6102 13.2727C14.9086 13.2727 15.1948 13.3877 15.4057 13.5922C15.6167 13.7968 15.7352 14.0743 15.7352 14.3636C15.7352 14.653 15.6167 14.9304 15.4057 15.135C15.1948 15.3396 14.9086 15.4545 14.6102 15.4545C14.3119 15.4545 14.0257 15.3396 13.8148 15.135C13.6038 14.9304 13.4852 14.653 13.4852 14.3636C13.4852 14.0743 13.6038 13.7968 13.8148 13.5922C14.0257 13.3877 14.3119 13.2727 14.6102 13.2727ZM15.25 6.36364C15.4489 6.36364 15.6397 6.44026 15.7803 6.57665C15.921 6.71304 16 6.89803 16 7.09091C16 7.28379 15.921 7.46878 15.7803 7.60517C15.6397 7.74156 15.4489 7.81818 15.25 7.81818H4.75C4.55109 7.81818 4.36032 7.74156 4.21967 7.60517C4.07902 7.46878 4 7.28379 4 7.09091C4 6.89803 4.07902 6.71304 4.21967 6.57665C4.36032 6.44026 4.55109 6.36364 4.75 6.36364H15.25Z" fill="#ffffff"/>
</svg>