<svg xmlns="http://www.w3.org/2000/svg" width="22" height="20" viewBox="0 0 22 20" fill="none">
  <path d="M20.9087 11.5528C20.9084 11.5407 20.9079 11.5286 20.9075 11.5165C20.9068 11.4936 20.906 11.4708 20.9049 11.448C20.9042 11.4331 20.9033 11.4183 20.9025 11.4035C20.9014 11.3839 20.9002 11.3643 20.8988 11.3448C20.8976 11.3282 20.8964 11.3116 20.895 11.295C20.8937 11.2783 20.8921 11.2616 20.8906 11.2449C20.8888 11.2261 20.8871 11.2073 20.8851 11.1885C20.8839 11.1771 20.8825 11.1657 20.8812 11.1544C20.6718 9.31242 19.3297 7.81437 17.5682 7.37384C17.2832 4.82673 14.442 2.82495 10.9721 2.82495C7.50219 2.82495 4.66101 4.82673 4.37597 7.37384C2.61455 7.81443 1.27242 9.31244 1.06303 11.1544C1.06174 11.1657 1.06034 11.1771 1.05912 11.1885C1.05715 11.2073 1.0554 11.2261 1.05365 11.2449C1.05209 11.2616 1.05057 11.2783 1.04921 11.295C1.04784 11.3116 1.04662 11.3282 1.04544 11.3448C1.04405 11.3643 1.04286 11.3839 1.04172 11.4035C1.04088 11.4183 1.04 11.4331 1.03932 11.448C1.03826 11.4708 1.03743 11.4936 1.03669 11.5165C1.03631 11.5286 1.03581 11.5407 1.03551 11.5528C1.03468 11.588 1.03418 11.6232 1.03418 11.6587V13.8671C1.03418 14.477 1.52853 14.9713 2.13837 14.9713H3.29827C3.55409 16.2313 4.66762 17.1798 6.00311 17.1798C6.00949 17.1798 6.01583 17.1796 6.02222 17.1796C6.02738 17.1796 6.03249 17.1798 6.03765 17.1798C7.37314 17.1798 8.48712 16.2314 8.7429 14.9713H13.2362C13.492 16.2313 14.6055 17.1798 15.941 17.1798C15.9474 17.1798 15.9537 17.1796 15.9601 17.1796C15.9653 17.1796 15.9704 17.1798 15.9756 17.1798C17.3111 17.1798 18.425 16.2314 18.6808 14.9714H19.8058C20.4157 14.9714 20.91 14.477 20.91 13.8672V11.6587C20.91 11.6233 20.9095 11.588 20.9087 11.5528L20.9087 11.5528ZM16.4302 7.2418H11.49V3.94644C14.0007 4.11369 16.0644 5.48345 16.4302 7.2418ZM10.3858 3.95149V7.2418H5.51407C5.87655 5.4995 7.90613 4.1389 10.3858 3.95149ZM7.68853 14.5475C7.66158 14.6125 7.64032 14.6806 7.6259 14.7516C7.47137 15.5126 6.7985 16.0663 6.02194 16.0751C5.11588 16.0666 4.38134 15.3272 4.38134 14.4192C4.38134 13.5059 5.12436 12.7629 6.03767 12.7629C6.95098 12.7629 7.69398 13.5059 7.69398 14.4192C7.69395 14.4624 7.69178 14.5051 7.68851 14.5475H7.68853ZM17.6265 14.5475C17.5995 14.6125 17.5782 14.6806 17.5638 14.7516C17.4093 15.5126 16.7364 16.0663 15.9599 16.0751C15.0538 16.0666 14.3193 15.3272 14.3193 14.4192C14.3193 13.5059 15.0623 12.7629 15.9756 12.7629C16.8889 12.7629 17.6319 13.5059 17.6319 14.4192C17.6319 14.4624 17.6297 14.5051 17.6265 14.5475ZM18.6809 13.8671C18.4251 12.607 17.3111 11.6586 15.9756 11.6586C14.6398 11.6586 13.5257 12.6074 13.2702 13.8678C13.2589 13.8675 13.2476 13.8671 13.2362 13.8671H8.74293C8.48715 12.607 7.37317 11.6586 6.03767 11.6586C4.70189 11.6586 3.58775 12.6074 3.33226 13.8678C3.32097 13.8675 3.30969 13.8671 3.29831 13.8671H2.13841V11.6586C2.13841 11.6325 2.1388 11.6064 2.13941 11.5804C2.13963 11.5706 2.14002 11.5608 2.14034 11.551C2.14084 11.5353 2.14141 11.5195 2.14213 11.5038C2.14273 11.4912 2.14341 11.4785 2.14415 11.4659C2.14483 11.4539 2.1456 11.442 2.14642 11.4301C2.14748 11.4149 2.14855 11.3996 2.14983 11.3845C2.15043 11.3774 2.1511 11.3704 2.15172 11.3634C2.27591 9.97843 3.26571 8.80754 4.64394 8.46016C4.69392 8.44757 4.74238 8.43146 4.78921 8.41247C5.00313 8.36893 5.22446 8.346 5.45105 8.346H16.4932C16.7198 8.346 16.9411 8.36891 17.155 8.41249C17.2019 8.43149 17.2503 8.44758 17.3003 8.46019C18.6786 8.80756 19.6683 9.9785 19.7925 11.3634C19.7931 11.3704 19.7938 11.3775 19.7944 11.3845C19.7957 11.3997 19.7968 11.4149 19.7978 11.4301C19.7986 11.442 19.7994 11.454 19.8001 11.4659C19.8008 11.4785 19.8015 11.4912 19.8021 11.5039C19.8028 11.5196 19.8034 11.5353 19.8039 11.5511C19.8042 11.5608 19.8046 11.5706 19.8048 11.5804C19.8054 11.6064 19.8058 11.6325 19.8058 11.6587V13.8671H18.6809V13.8671Z" fill="#09090B" stroke="#09090B" stroke-width="0.3"/>
</svg>