<svg xmlns="http://www.w3.org/2000/svg" width="20" height="20" viewBox="0 0 20 20" fill="none">
  <path d="M7.72461 8.74927C8.19336 8.74927 8.42773 8.98364 8.42773 9.45239V18.0495C8.42773 18.5182 8.19336 18.7526 7.72461 18.7526C7.25586 18.7526 7.02148 18.5182 7.02148 18.0495V9.45239C7.02148 8.98364 7.25586 8.74927 7.72461 8.74927Z" fill="#fff"/>
  <path d="M3.18945 11.2529C3.6582 11.2529 3.89258 11.4873 3.89258 11.9561V18.0496C3.89258 18.5184 3.6582 18.7527 3.18945 18.7527C2.7207 18.7527 2.48633 18.5184 2.48633 18.0496V11.9561C2.48633 11.4873 2.7207 11.2529 3.18945 11.2529Z" fill="#fff"/>
  <path d="M12.2598 12.5043C12.7285 12.5043 12.9629 12.7386 12.9629 13.2074V18.0494C12.9629 18.5181 12.7285 18.7525 12.2598 18.7525C11.791 18.7525 11.5566 18.5181 11.5566 18.0494V13.2074C11.5566 12.7386 11.791 12.5043 12.2598 12.5043Z" fill="#fff"/>
  <path d="M16.7939 10.0424C17.2627 10.0424 17.4971 10.2767 17.4971 10.7455V18.0496C17.4971 18.5183 17.2627 18.7527 16.7939 18.7527C16.3252 18.7527 16.0908 18.5183 16.0908 18.0496V10.7455C16.0908 10.2767 16.3252 10.0424 16.7939 10.0424Z" fill="#fff"/>
  <path d="M18.552 1.45508C18.4202 1.3238 18.2418 1.25006 18.0559 1.25H18.0525L14.7393 1.26543C14.5528 1.26584 14.3741 1.34032 14.2425 1.47248C14.111 1.60463 14.0373 1.78364 14.0377 1.97012C14.0381 2.1566 14.1126 2.33528 14.2447 2.46684C14.3769 2.59841 14.5559 2.67209 14.7424 2.67168H14.7457L16.3391 2.66426L12.494 6.49629L9.24434 3.2541C9.1256 3.13561 8.9684 3.06348 8.80114 3.05073C8.63388 3.03798 8.46757 3.08545 8.33223 3.18457L1.49825 8.18984C1.42311 8.24416 1.35946 8.31279 1.31095 8.39181C1.26244 8.47082 1.23004 8.55864 1.2156 8.65022C1.20117 8.74181 1.20499 8.83534 1.22685 8.92544C1.24871 9.01554 1.28817 9.10043 1.34296 9.17522C1.39775 9.25001 1.46679 9.31322 1.54611 9.36123C1.62543 9.40923 1.71346 9.44107 1.80513 9.45492C1.89681 9.46877 1.99031 9.46435 2.08027 9.44192C2.17023 9.41949 2.25486 9.37949 2.3293 9.32422L8.67696 4.67402L11.9973 7.98691C12.1291 8.11835 12.3076 8.19215 12.4938 8.19215C12.6799 8.19215 12.8584 8.11835 12.9902 7.98691L17.3529 3.63926V5.46875C17.3529 5.65523 17.427 5.83407 17.5589 5.96593C17.6907 6.0978 17.8696 6.17187 18.0561 6.17187C18.2425 6.17187 18.4214 6.0978 18.5532 5.96593C18.6851 5.83407 18.7592 5.65523 18.7592 5.46875V1.95312C18.7591 1.86055 18.7408 1.76891 18.7052 1.68344C18.6697 1.59797 18.6176 1.52037 18.552 1.45508Z" fill="#fff"/>
</svg>