<svg xmlns="http://www.w3.org/2000/svg" width="20" height="20" viewBox="0 0 20 20" fill="none">
  <path d="M16.875 0H1.875C0.84 0 0 0.84 0 1.875V16.875C0 17.91 0.84 18.75 1.875 18.75H16.875C17.91 18.75 18.75 17.91 18.75 16.875V1.875C18.75 0.84 17.91 0 16.875 0ZM17.5 16.875C17.5 17.22 17.22 17.5 16.875 17.5H1.875C1.53 17.5 1.25 17.22 1.25 16.875V1.875C1.25 1.53 1.53 1.25 1.875 1.25H16.875C17.22 1.25 17.5 1.53 17.5 1.875V16.875ZM13.75 2.5H12.5V5H10V2.5H8.75V5H6.25V2.5H5V5H2.5V6.25H5V8.75H2.5V10H5V12.5H2.5V13.75H5V16.25H6.25V13.75H8.75V16.25H10V13.75H12.5V16.25H13.75V13.75H16.25V12.5H13.75V10H16.25V8.75H13.75V6.25H16.25V5H13.75V2.5ZM6.25 6.25H8.75V8.75H6.25V6.25ZM6.25 12.5V10H8.75V12.5H6.25ZM12.5 12.5H10V10H12.5V12.5ZM12.5 8.75H10V6.25H12.5V8.75Z" fill="#fff"/>
</svg>