<svg xmlns="http://www.w3.org/2000/svg" width="20" height="20" viewBox="0 0 20 20" fill="none">
  <g clip-path="url(#clip0_273_13194)">
    <path d="M20.0001 17.1203C20 14.0785 18.2534 11.4785 15.7834 10.4182C16.9796 9.55604 17.768 8.0873 17.768 6.41922C17.768 4.14203 16.2993 2.23614 14.3276 1.74049C14.3102 1.7361 14.2918 1.73775 14.2755 1.74519C14.2531 1.7429 14.2313 1.73774 14.2085 1.73774C13.7873 1.73774 13.4458 2.10619 13.4458 2.56051C13.4458 2.97074 13.7251 3.30804 14.0894 3.3701C14.1542 3.39861 14.2393 3.42025 14.2426 3.42162C15.3845 3.83953 16.206 5.00372 16.206 6.37651C16.206 7.9072 15.1838 9.17912 13.8356 9.44532C13.8338 9.44544 13.8322 9.44922 13.8302 9.45025C13.3817 9.48082 13.0256 9.87892 13.0256 10.3701C13.0256 10.8688 13.3921 11.2729 13.8504 11.2926C13.8534 11.2943 13.8563 11.2997 13.8595 11.2998C16.571 11.5977 18.493 14.0887 18.493 17.1204C18.493 17.5692 18.8304 17.9331 19.2466 17.9331C19.6526 17.9331 19.9812 17.5859 19.9971 17.1522C19.9976 17.148 20.0001 17.1447 20.0001 17.1403C20.0001 17.1388 19.9995 17.1373 19.9995 17.1354C19.9998 17.1305 20.0001 17.1255 20.0001 17.1206V17.1203ZM10.9699 10.5531C12.3986 9.52077 13.3394 7.76557 13.3394 5.77186C13.3394 2.59485 10.9513 0.0192871 8.00538 0.0192871C5.05954 0.0192871 2.67128 2.59485 2.67128 5.77186C2.67128 7.7658 3.61243 9.52077 5.04076 10.5531C2.08782 11.824 0 14.9341 0 18.5722C0 18.777 0.0107625 18.9788 0.0253034 19.1793H0.0266774C0.0266774 19.6222 0.359515 19.9808 0.770208 19.9808C1.18056 19.9808 1.51351 19.6221 1.51351 19.1793C1.51351 19.1544 1.50882 19.1308 1.50664 19.1064C1.49233 18.9299 1.48008 18.7531 1.48008 18.5722C1.48008 14.6856 4.40153 11.535 8.0055 11.535C11.6096 11.535 14.531 14.6856 14.531 18.5722C14.531 18.7597 14.5188 18.9442 14.5034 19.1271C14.5033 19.1366 14.5009 19.1453 14.5009 19.155C14.5009 19.1578 14.5018 19.1607 14.5018 19.1634C14.5014 19.1687 14.5015 19.1742 14.5009 19.1793H14.5033C14.5156 19.6103 14.8417 19.9565 15.2442 19.9565C15.647 19.9565 15.973 19.6105 15.9853 19.1793H15.9869C16.001 18.9786 16.011 18.7768 16.011 18.5724C16.0108 14.9341 13.9231 11.824 10.9699 10.5531ZM8.00538 9.90399C5.88928 9.90399 4.17392 8.05398 4.17392 5.77186C4.17392 3.48986 5.88928 1.63974 8.00538 1.63974C10.1215 1.63974 11.8368 3.48975 11.8368 5.77186C11.8368 8.05398 10.1215 9.90399 8.00538 9.90399Z" fill="#fff"/>
  </g>
  <defs>
    <clipPath id="clip0_273_13194">
      <rect width="20" height="20" fill="white"/>
    </clipPath>
  </defs>
</svg>