<svg xmlns="http://www.w3.org/2000/svg" width="20" height="20" viewBox="0 0 20 20" fill="none">
  <path d="M5.52627 2.00049C5.34883 2.00054 5.17844 2.06825 5.0515 2.18916L2.53856 4.58166C2.36962 4.72423 2.2341 4.90055 2.14118 5.09868C2.04825 5.29681 2.00011 5.51211 2 5.72998V16.5085C2 17.304 2.64 18.0005 3.49333 18.0005H16.5067C17.36 18.0005 18 17.305 18 16.5085V5.72998C17.9998 5.51286 17.952 5.2983 17.8596 5.10075C17.7672 4.90319 17.6325 4.72723 17.4646 4.58472L14.9485 2.18814C14.8214 2.0676 14.651 2.00026 14.4737 2.00049H5.52627ZM15.1556 4.23798H4.84549L5.8034 3.32626H14.1966L15.1545 4.23798H15.1556ZM3.39085 5.62494L3.43268 5.58415C3.45056 5.57197 3.47156 5.56491 3.49333 5.56375H16.5067C16.5234 5.56375 16.5464 5.56987 16.5694 5.58415L16.6091 5.6229C16.6307 5.65456 16.6417 5.69198 16.6405 5.72998V16.5085C16.6405 16.6278 16.5527 16.6747 16.5067 16.6747H3.49333C3.44732 16.6747 3.35948 16.6278 3.35948 16.5085V5.72998C3.35853 5.69233 3.36948 5.6553 3.39085 5.62392V5.62494Z" fill="#09090B"/>
  <path d="M8.18361 12.06C8.11745 12.0037 8.04151 11.96 7.95957 11.931C7.78755 11.8701 7.59994 11.8694 7.42747 11.929C7.34532 11.9572 7.26905 12.0003 7.20243 12.056C7.13978 12.1083 7.08869 12.173 7.0524 12.246C7.01777 12.316 6.99983 12.3931 7 12.4711C7.00017 12.5492 7.01845 12.6262 7.0534 12.696C7.09056 12.7685 7.14232 12.8325 7.20543 12.884L9.51084 14.829C9.64722 14.9402 9.81796 15.0006 9.99393 15H10.0059C10.1819 15.0009 10.3528 14.9404 10.489 14.829L12.7944 12.884C12.8576 12.8322 12.9094 12.7679 12.9465 12.695C12.9813 12.6254 12.9996 12.5486 13 12.4707C13.0003 12.3929 12.9827 12.316 12.9485 12.246C12.9121 12.173 12.861 12.1083 12.7984 12.056C12.7315 12.0002 12.6549 11.9571 12.5724 11.929C12.3999 11.8694 12.2123 11.8701 12.0403 11.931C11.9584 11.96 11.8824 12.0037 11.8163 12.06L10.6911 13.009V8.58305C10.6895 8.50369 10.6705 8.42564 10.6354 8.35444C10.6003 8.28324 10.55 8.22063 10.488 8.17105C10.3503 8.05884 10.1776 7.99835 9.99993 8.00006C9.82205 7.99792 9.64903 8.05806 9.51084 8.17005C9.4489 8.21983 9.39868 8.28265 9.36376 8.35403C9.32884 8.42541 9.31008 8.5036 9.30881 8.58305V13.009L8.18561 12.06H8.18361Z" fill="#09090B"/>
</svg>