<svg xmlns="http://www.w3.org/2000/svg" width="20" height="20" viewBox="0 0 20 20" fill="none">
  <g clip-path="url(#clip0_273_13274)">
    <path d="M19.7813 8.04842C19.6645 7.43113 19.2876 7.0323 18.821 7.0323C18.8151 7.0323 18.809 7.03236 18.8057 7.03247H18.7198C17.3707 7.03247 16.273 5.93484 16.273 4.58565C16.273 4.1478 16.4842 3.65693 16.486 3.6527C16.7278 3.10844 16.5418 2.44104 16.0538 2.10054L16.0242 2.07974L13.5445 0.702218L13.5132 0.688466C13.3516 0.618253 13.1749 0.582649 12.9877 0.582649C12.6041 0.582649 12.2269 0.7366 11.9788 0.994209C11.7068 1.27495 10.768 2.0763 10.0467 2.0763C9.31879 2.0763 8.37445 1.25921 8.1013 0.973267C7.85187 0.710402 7.47162 0.553467 7.08419 0.553467C6.90068 0.553467 6.7271 0.58782 6.56834 0.655533L6.53612 0.6692L3.96893 2.07937L3.93861 2.1004C3.44899 2.44058 3.26194 3.10739 3.50346 3.65137C3.50559 3.65625 3.71711 4.14445 3.71711 4.58559C3.71711 5.93478 2.61948 7.03242 1.27029 7.03242H1.18575C1.17987 7.0323 1.17402 7.03222 1.16819 7.03222C0.70213 7.03222 0.32552 7.43108 0.208735 8.04848C0.200211 8.09374 0 9.16697 0 10.0064C0 10.8457 0.200211 11.9189 0.208764 11.9643C0.325634 12.5816 0.702471 12.9805 1.16884 12.9805C1.17475 12.9805 1.18086 12.9804 1.18439 12.9802H1.27029C2.61948 12.9802 3.71711 14.0779 3.71711 15.427C3.71711 15.8654 3.50596 16.3557 3.50409 16.36C3.26251 16.9038 3.44797 17.5712 3.93574 17.9126L3.96469 17.9328L6.39714 19.293L6.42806 19.3067C6.58951 19.3776 6.7658 19.4135 6.952 19.4135C7.34097 19.4135 7.72093 19.2529 7.9684 18.9838C8.31387 18.6084 9.25119 17.8332 9.94346 17.8332C10.693 17.8332 11.6543 18.7022 11.9316 19.0063C12.1796 19.2799 12.5622 19.4434 12.9551 19.4435H12.9552C13.1378 19.4435 13.3109 19.4088 13.4699 19.3402L13.5014 19.3266L16.0228 17.933L16.0526 17.9122C16.5414 17.5716 16.728 16.9048 16.4869 16.3621C16.4848 16.3571 16.273 15.8624 16.273 15.4271C16.273 14.0779 17.3707 12.9803 18.7198 12.9803L18.8032 12.9802C18.8087 12.9804 18.8142 12.9804 18.8198 12.9804C19.2871 12.9804 19.6645 12.5815 19.7812 11.9646C19.7832 11.9538 19.9901 10.8667 19.9901 10.0063C19.9901 9.16307 19.7898 8.09357 19.7813 8.04842ZM6.9647 18.001L4.83689 16.8112C4.93065 16.5704 5.12172 16.0083 5.12172 15.4271C5.12172 13.409 3.56865 11.7404 1.56844 11.587C1.5196 11.3023 1.40472 10.5728 1.40472 10.0064C1.40472 9.44077 1.51954 8.7106 1.56836 8.42574C3.56865 8.27238 5.12172 6.60386 5.12172 4.58562C5.12172 4.00598 4.93168 3.44544 4.83811 3.20454L7.10234 1.96094C7.1024 1.96094 7.10243 1.96097 7.10249 1.96097C7.18409 2.04434 7.51064 2.36835 7.96149 2.68964C8.6982 3.21477 9.39974 3.48105 10.0466 3.48105C10.6872 3.48105 11.3831 3.21994 12.1152 2.70495C12.5632 2.38983 12.8882 2.07207 12.9696 1.99009C12.9698 1.99006 12.9699 1.99001 12.9701 1.98998L15.1527 3.20264C15.0591 3.44351 14.8683 4.00521 14.8683 4.58564C14.8683 6.60389 16.4214 8.27241 18.4216 8.42577C18.4705 8.71105 18.5853 9.44251 18.5853 10.0064C18.5853 10.5726 18.4705 11.3024 18.4217 11.5871C16.4214 11.7404 14.8683 13.409 14.8683 15.4272C14.8683 16.0075 15.0587 16.5684 15.1523 16.8092L12.9423 18.0306C12.847 17.9293 12.5253 17.5996 12.08 17.2688C11.329 16.7112 10.6102 16.4284 9.94343 16.4284C9.28307 16.4284 8.56966 16.7059 7.823 17.2531C7.38413 17.5748 7.06026 17.9013 6.9647 18.001ZM13.4921 9.99344C13.4921 8.04134 11.9039 6.45321 9.95173 6.45321C7.99963 6.45321 6.41149 8.04134 6.41149 9.99344C6.41149 11.9455 7.99963 13.5337 9.95173 13.5337C11.9039 13.5337 13.4921 11.9455 13.4921 9.99344ZM9.95173 7.85795C11.1293 7.85795 12.0874 8.81593 12.0874 9.99344C12.0874 11.171 11.1293 12.1291 9.95173 12.1291C8.77421 12.1291 7.81624 11.171 7.81624 9.99344C7.81624 8.8159 8.77421 7.85795 9.95173 7.85795Z" fill="#09090B"/>
  </g>
  <defs>
    <clipPath id="clip0_273_13274">
      <rect width="20" height="20" fill="white"/>
    </clipPath>
  </defs>
</svg>