<svg xmlns="http://www.w3.org/2000/svg" width="19" height="20" viewBox="0 0 19 20" fill="none">
  <path d="M8.31574 3.85326L9.15752 4.82147C9.32422 5.01947 9.40638 5.27509 9.38625 5.53314C9.36613 5.79119 9.24533 6.03098 9.04994 6.20075C8.85456 6.37051 8.60025 6.45663 8.34191 6.44052C8.08358 6.42441 7.84194 6.30736 7.66916 6.11463L5.83921 4.01074C5.72741 3.91727 5.63778 3.80013 5.57679 3.66779C5.51579 3.53545 5.48496 3.3912 5.48653 3.24549C5.48496 3.09978 5.51579 2.95554 5.57679 2.82319C5.63778 2.69085 5.72741 2.57371 5.83921 2.48024L7.66916 0.377462C7.75349 0.277975 7.85673 0.196209 7.97288 0.136899C8.08904 0.0775889 8.21581 0.041914 8.34585 0.0319401C8.47589 0.0219662 8.60662 0.0378916 8.73046 0.078794C8.8543 0.119696 8.9688 0.184763 9.06732 0.270225C9.16584 0.355687 9.24642 0.459847 9.30441 0.576671C9.36239 0.693495 9.39662 0.820663 9.40511 0.950808C9.4136 1.08095 9.39619 1.21149 9.35388 1.33486C9.31157 1.45823 9.2452 1.57198 9.15863 1.66952L9.00558 1.84586H9.02554C10.8934 1.84642 12.7135 2.43648 14.2264 3.53198C15.7394 4.62747 16.868 6.1725 17.4514 7.94694C18.0349 9.72138 18.0434 11.6347 17.4758 13.4143C16.9083 15.1939 15.7935 16.7489 14.2905 17.8579C12.7874 18.9669 10.9727 19.5732 9.10486 19.5904C7.23704 19.6077 5.41142 19.035 3.88811 17.954C2.3648 16.873 1.22152 15.3388 0.621159 13.57C0.0208002 11.8012 -0.00600725 9.88809 0.544556 8.10317L0.558974 8.11759C0.650182 7.92222 0.809656 7.76692 1.00738 7.68093C1.2051 7.59493 1.42744 7.58418 1.63254 7.65068C1.86276 7.72524 2.05939 7.87846 2.18796 8.08348C2.31652 8.2885 2.36882 8.53222 2.33569 8.77194L2.18707 9.83442L2.15602 10.054C2.0192 11.4708 2.32385 12.8953 3.02823 14.1321C3.73261 15.369 4.80225 16.3578 6.09056 16.963C7.37888 17.5683 8.82282 17.7603 10.2245 17.5128C11.6262 17.2653 12.9171 16.5904 13.9203 15.5805C14.9234 14.5707 15.5897 13.2754 15.8279 11.8721C16.0661 10.4687 15.8645 9.0261 15.2507 7.74184C14.637 6.45757 13.6411 5.39452 12.3996 4.69837C11.158 4.00222 9.7316 3.70703 8.31574 3.85326ZM9.02554 10.7183H10.9974C11.2531 10.7269 11.4954 10.8345 11.6732 11.0184C11.8509 11.2022 11.9503 11.448 11.9503 11.7037C11.9503 11.9595 11.8509 12.2053 11.6732 12.3891C11.4954 12.573 11.2531 12.6806 10.9974 12.6891H8.03848C7.77718 12.6891 7.52656 12.5854 7.34169 12.4008C7.15682 12.2161 7.05281 11.9656 7.05252 11.7043V8.74643C7.05252 8.48494 7.1564 8.23416 7.3413 8.04925C7.5262 7.86435 7.77698 7.76048 8.03848 7.76048C8.29997 7.76048 8.55075 7.86435 8.73565 8.04925C8.92055 8.23416 9.02443 8.48494 9.02443 8.74643V10.7172L9.02554 10.7183Z" fill="#09090B" stroke="#1C64F2" stroke-width="0.3"/>
</svg>