<svg xmlns="http://www.w3.org/2000/svg" width="111" height="111" viewBox="0 0 111 111" fill="none">
  <path d="M97.0312 0H10.7812C4.83 0 0 4.83 0 10.7812V97.0312C0 102.982 4.83 107.812 10.7812 107.812H97.0312C102.982 107.812 107.812 102.982 107.812 97.0312V10.7812C107.812 4.83 102.982 0 97.0312 0ZM100.625 97.0312C100.625 99.015 99.015 100.625 97.0312 100.625H10.7812C8.7975 100.625 7.1875 99.015 7.1875 97.0312V10.7812C7.1875 8.7975 8.7975 7.1875 10.7812 7.1875H97.0312C99.015 7.1875 100.625 8.7975 100.625 10.7812V97.0312ZM79.0625 14.375H71.875V28.75H57.5V14.375H50.3125V28.75H35.9375V14.375H28.75V28.75H14.375V35.9375H28.75V50.3125H14.375V57.5H28.75V71.875H14.375V79.0625H28.75V93.4375H35.9375V79.0625H50.3125V93.4375H57.5V79.0625H71.875V93.4375H79.0625V79.0625H93.4375V71.875H79.0625V57.5H93.4375V50.3125H79.0625V35.9375H93.4375V28.75H79.0625V14.375ZM35.9375 35.9375H50.3125V50.3125H35.9375V35.9375ZM35.9375 71.875V57.5H50.3125V71.875H35.9375ZM71.875 71.875H57.5V57.5H71.875V71.875ZM71.875 50.3125H57.5V35.9375H71.875V50.3125Z" fill="black" stroke="white" stroke-width="5"/>
</svg>