<svg xmlns="http://www.w3.org/2000/svg" width="26" height="26" viewBox="0 0 26 26" fill="none">
  <path d="M4.33203 6.50651C4.33203 2.93693 8.40753 0.898094 11.2643 3.03984L19.9277 9.53118C22.2406 11.2645 22.2406 14.7333 19.9277 16.4667L11.2654 22.9591C8.40753 25.1008 4.33203 23.062 4.33203 19.4924V6.50543V6.50651ZM9.96536 4.77318C8.53536 3.70284 6.4987 4.72226 6.4987 6.50651V19.4913C6.4987 21.2767 8.53536 22.2961 9.96536 21.2247L18.6288 14.7333C18.8981 14.5315 19.1167 14.2698 19.2672 13.9688C19.4178 13.6679 19.4962 13.336 19.4962 12.9995C19.4962 12.663 19.4178 12.3311 19.2672 12.0301C19.1167 11.7291 18.8981 11.4674 18.6288 11.2656L9.96428 4.77318H9.96536Z" fill="#1C64F2"/>
</svg>