<svg xmlns="http://www.w3.org/2000/svg" width="13" height="14" viewBox="0 0 13 14" fill="none">
  <path d="M1.27121 7.38866L2.89211 5.88858L2.24649 5.62607L2.44567 5.69357C2.70291 4.77064 3.22493 3.96241 3.93475 3.38809C4.64457 2.81376 5.5046 2.50373 6.38802 2.50373C7.27144 2.50373 8.13148 2.81376 8.8413 3.38809C9.55111 3.96241 10.0731 4.77064 10.3304 5.69357L11.5804 5.28105C11.2606 4.05442 10.5852 2.97412 9.65547 2.20225C8.72577 1.43039 7.59192 1.00858 6.42408 1.00013C5.25623 0.991678 4.11736 1.39704 3.17837 2.15538C2.23938 2.91372 1.55091 3.98415 1.21626 5.20604L0.914062 5.07854L1.27121 7.38116V7.38866ZM11.9032 9.00125L11.5598 6.65362L9.92515 8.1912L10.3235 8.34871C10.0608 9.26753 9.53524 10.0702 8.824 10.6387C8.11277 11.2073 7.25333 11.5118 6.3719 11.5076C5.49048 11.5034 4.63351 11.1907 3.92684 10.6154C3.22017 10.0401 2.70103 9.2325 2.44567 8.31121L1.20253 8.72373C1.52063 9.94443 2.19141 11.0202 3.1149 11.7907C4.0384 12.5613 5.16517 12.9853 6.32728 12.9996C7.4894 13.014 8.62465 12.6178 9.56385 11.8703C10.503 11.1227 11.1959 10.0638 11.5392 8.85124L11.9032 9.00125Z" fill="#CCCFD4"/>
</svg>