<svg xmlns="http://www.w3.org/2000/svg" width="12" height="12" viewBox="0 0 12 12" fill="none">
  <g clip-path="url(#clip0_503_4557)">
    <path d="M1.32496 4.59768C1.04443 4.59768 0.857422 4.41067 0.857422 4.13015V2.26002C0.857422 1.51196 1.51196 0.857422 2.26002 0.857422H4.13015C4.41067 0.857422 4.59768 1.04443 4.59768 1.32496C4.59768 1.60548 4.41067 1.79249 4.13015 1.79249H2.26002C1.9795 1.79249 1.79249 1.9795 1.79249 2.26002V4.13015C1.79249 4.41067 1.60548 4.59768 1.32496 4.59768ZM4.13015 11.1431H2.26002C1.51196 11.1431 0.857422 10.4886 0.857422 9.74055V7.8704C0.857422 7.58989 1.04443 7.40287 1.32496 7.40287C1.60548 7.40287 1.79248 7.58989 1.79248 7.8704V9.74054C1.79248 10.021 1.97949 10.2081 2.26001 10.2081H4.13014C4.41066 10.2081 4.59767 10.3951 4.59767 10.6756C4.59767 10.9561 4.41067 11.1431 4.13015 11.1431ZM9.74054 11.1431H7.8704C7.58989 11.1431 7.40287 10.9561 7.40287 10.6756C7.40287 10.3951 7.58989 10.2081 7.8704 10.2081H9.74053C10.021 10.2081 10.2081 10.021 10.2081 9.74054V7.8704C10.2081 7.58989 10.3951 7.40287 10.6756 7.40287C10.9561 7.40287 11.1431 7.58989 11.1431 7.8704V9.74054C11.1431 10.4886 10.4886 11.1431 9.74054 11.1431ZM10.6756 4.59768C10.3951 4.59768 10.2081 4.41067 10.2081 4.13015V2.26002C10.2081 1.9795 10.021 1.79249 9.74053 1.79249H7.8704C7.58989 1.79249 7.40287 1.60548 7.40287 1.32496C7.40287 1.04443 7.58989 0.857422 7.8704 0.857422H9.74053C10.4886 0.857422 11.1431 1.51196 11.1431 2.26002V4.13015C11.1431 4.41067 10.9561 4.59768 10.6756 4.59768ZM10.6756 6.46781H1.32496C1.04443 6.46781 0.857422 6.28079 0.857422 6.00028C0.857422 5.71975 1.04443 5.53275 1.32496 5.53275H10.6756C10.9561 5.53275 11.1431 5.71975 11.1431 6.00028C11.1431 6.28079 10.9561 6.46781 10.6756 6.46781Z" fill="#717784" stroke="#717784" stroke-width="0.5"/>
  </g>
  <defs>
    <clipPath id="clip0_503_4557">
      <rect width="12" height="12" fill="white"/>
    </clipPath>
  </defs>
</svg>