<svg xmlns="http://www.w3.org/2000/svg" width="26" height="26" viewBox="0 0 26 26" fill="none">
  <g clip-path="url(#clip0_273_14126)">
    <path d="M13 0C5.81952 0 0 5.81952 0 13C0 20.1805 5.81952 26 13 26C20.1805 26 26 20.1805 26 13C26 5.81952 20.1805 0 13 0ZM18.2126 16.9332C18.3708 17.1073 18.4559 17.3358 18.4501 17.571C18.4442 17.8063 18.3479 18.0302 18.1812 18.1963C18.0144 18.3623 17.7901 18.4577 17.5548 18.4626C17.3195 18.4675 17.0914 18.3814 16.9179 18.2224L13 14.2955L9.08207 18.2224C8.90455 18.4035 8.66876 18.4914 8.43476 18.4914C8.25425 18.4911 8.07785 18.4374 7.92779 18.3371C7.77774 18.2368 7.66073 18.0943 7.59151 17.9276C7.5223 17.7608 7.50397 17.5774 7.53883 17.4003C7.5737 17.2231 7.66021 17.0603 7.78745 16.9323L11.709 13L7.78655 9.06683C7.62826 8.89269 7.54318 8.66424 7.54903 8.42898C7.55488 8.19372 7.65119 7.96977 7.81794 7.80372C7.98469 7.63766 8.20904 7.54228 8.44432 7.53741C8.6796 7.53254 8.9077 7.61857 9.08117 7.77759L12.9991 11.7045L16.917 7.7749C17.0905 7.61588 17.3186 7.52985 17.5539 7.53472C17.7892 7.53959 18.0135 7.63497 18.1803 7.80103C18.347 7.96708 18.4433 8.19103 18.4492 8.42629C18.455 8.66155 18.37 8.89 18.2117 9.06414L14.291 13L18.2134 16.9332H18.2126Z" fill="white" fill-opacity="0.9"/>
  </g>
  <defs>
    <clipPath id="clip0_273_14126">
      <rect width="26" height="26" fill="white"/>
    </clipPath>
  </defs>
</svg>