<svg xmlns="http://www.w3.org/2000/svg" width="70" height="70" viewBox="0 0 70 70" fill="none">
  <g clip-path="url(#clip0_256_9352)">
    <path d="M34.939 0C36.8426 0 38.3779 1.54205 38.3779 3.43896V14.0218C38.3779 15.9255 36.8358 17.4608 34.939 17.4608C33.0353 17.4608 31.5 15.9187 31.5 14.0218V3.44572C31.4932 1.54205 33.0353 0 34.939 0Z" fill="#1C64F2" fill-opacity="0.08"/>
    <path d="M53.0672 5.19935C54.7116 6.14777 55.2779 8.25618 54.3296 9.90056L49.0346 19.071C48.0862 20.7155 45.9778 21.2818 44.3334 20.3334C42.689 19.3849 42.1227 17.2765 43.0711 15.6322L48.366 6.46844C49.3212 4.81722 51.4227 4.25086 53.0672 5.19935Z" fill="#1C64F2"/>
    <path d="M64.5319 17.8019C65.4803 19.4463 64.9208 21.5547 63.2695 22.5032L54.1059 27.798C52.4614 28.7465 50.353 28.187 49.4046 26.5357C48.4562 24.8913 49.0157 22.7829 50.6669 21.8345L59.8306 16.5396C61.475 15.5912 63.5766 16.1575 64.5319 17.8019Z" fill="#1C64F2" fill-opacity="0.9"/>
    <path d="M69.826 34.2665C69.826 36.1702 68.2839 37.7055 66.387 37.7055H55.8042C53.9004 37.7055 52.3652 36.1633 52.3652 34.2665C52.3652 32.3628 53.9073 30.8276 55.8042 30.8276H66.387C68.2908 30.8207 69.826 32.3628 69.826 34.2665Z" fill="#1C64F2" fill-opacity="0.7"/>
    <path d="M64.5304 52.0685C63.5819 53.7128 61.4735 54.2792 59.8291 53.3307L50.6654 48.0359C49.0211 47.0874 48.4547 44.979 49.4031 43.3347C50.3515 41.6902 52.4599 41.1239 54.1044 42.0723L63.268 47.3672C64.9124 48.3157 65.4787 50.424 64.5304 52.0685Z" fill="#1C64F2" fill-opacity="0.52"/>
    <path d="M53.0686 66.0152C51.4243 66.9636 49.3159 66.4042 48.3674 64.7529L43.0726 55.5893C42.1242 53.9448 42.6836 51.8364 44.3349 50.888C45.9793 49.9395 48.0877 50.4991 49.0361 52.1503L54.331 61.314C55.2795 62.9584 54.7199 65.0599 53.0686 66.0152Z" fill="#1C64F2" fill-opacity="0.48"/>
    <path d="M34.939 69.8704C33.0353 69.8704 31.5 68.3283 31.5 66.4314V55.8485C31.5 53.9448 33.0421 52.4096 34.939 52.4096C36.8426 52.4096 38.3779 53.9517 38.3779 55.8485V66.4314C38.3779 68.3283 36.8358 69.8704 34.939 69.8704Z" fill="#1C64F2" fill-opacity="0.42"/>
    <path d="M16.8022 66.0152C15.1578 65.0668 14.5914 62.9584 15.5398 61.314L20.8348 52.1503C21.7832 50.5059 23.8916 49.9395 25.536 50.888C27.1803 51.8364 27.7467 53.9448 26.7983 55.5892L21.5034 64.7529C20.555 66.3973 18.4466 66.9636 16.8022 66.0152Z" fill="#1C64F2" fill-opacity="0.38"/>
    <path d="M3.96716 52.0684C3.01867 50.424 3.57819 48.3157 5.22941 47.3672L14.3931 42.0723C16.0375 41.1239 18.1459 41.6834 19.0943 43.3347C20.0428 44.979 19.4833 47.0874 17.832 48.0359L8.66837 53.3307C7.02398 54.2792 4.91557 53.7128 3.96716 52.0684Z" fill="#1C64F2" fill-opacity="0.32"/>
    <path d="M0.0449219 34.2665C0.0449219 32.3628 1.58697 30.8275 3.48388 30.8275H14.0667C15.9705 30.8275 17.5057 32.3696 17.5057 34.2665C17.5057 36.1702 15.9636 37.7055 14.0667 37.7055H3.48388C1.58697 37.7055 0.0449219 36.1633 0.0449219 34.2665Z" fill="#1C64F2" fill-opacity="0.26"/>
    <path d="M3.96716 17.8019C4.91557 16.1575 7.02398 15.5912 8.66837 16.5396L17.832 21.8345C19.4765 22.7829 20.0428 24.8913 19.0943 26.5357C18.1459 28.1801 16.0375 28.7465 14.3931 27.798L5.22941 22.5032C3.57819 21.5548 3.01867 19.4532 3.96716 17.802V17.8019Z" fill="#1C64F2" fill-opacity="0.2"/>
    <path d="M16.8022 5.19935C18.4466 4.25093 20.555 4.81038 21.5035 6.46167L26.7983 15.6252C27.7467 17.2697 27.1873 19.3781 25.536 20.3265C23.8916 21.275 21.7832 20.7155 20.8348 19.0643L15.5399 9.90049C14.5914 8.25611 15.1577 6.1546 16.8022 5.19935Z" fill="#1C64F2" fill-opacity="0.12"/>
  </g>
  <defs>
    <clipPath id="clip0_256_9352">
      <rect width="70" height="70" fill="white"/>
    </clipPath>
  </defs>
</svg>