<svg xmlns="http://www.w3.org/2000/svg" width="20" height="20" viewBox="0 0 20 20" fill="none">
  <path d="M9.28655 17.1429C13.5723 17.1429 17.1437 13.5714 17.1437 9.28571C17.1437 5 13.5723 1.42857 9.28655 1.42857C5.00084 1.42857 1.42941 5 1.42941 9.28571C1.42941 13.5714 5.00084 17.1429 9.28655 17.1429ZM9.28655 0C14.4294 0 18.5723 4.14286 18.5723 9.28571C18.5723 14.4286 14.4294 18.5714 9.28655 18.5714C4.14369 18.5714 0.000837326 14.4286 0.000837326 9.28571C0.000837326 4.14286 4.14369 0 9.28655 0ZM6.71512 6.71429C7.00084 6.42857 7.42941 6.42857 7.71512 6.71429L9.28655 8.28571L10.858 6.71429C11.1437 6.42857 11.5723 6.42857 11.858 6.71429C12.1437 7 12.1437 7.42857 11.858 7.71429L10.2866 9.28571L11.858 10.8571C12.1437 11.1429 12.1437 11.5714 11.858 11.8571C11.5723 12.1429 11.1437 12.1429 10.858 11.8571L9.28655 10.2857L7.71512 11.8571C7.42941 12.1429 7.00084 12.1429 6.71512 11.8571C6.42941 11.5714 6.42941 11.1429 6.71512 10.8571L8.28655 9.28571L6.71512 7.71429C6.42941 7.42857 6.42941 7 6.71512 6.71429Z" fill="#717784"/>
</svg>