<svg xmlns="http://www.w3.org/2000/svg" width="16" height="16" viewBox="0 0 16 16" fill="none">
  <g clip-path="url(#clip0_302_15576)">
    <path d="M7.99902 0.5C9.98762 0.502184 11.8946 1.29307 13.3008 2.69922C14.6191 4.01752 15.3964 5.77569 15.4902 7.62891L15.5 8.00098C15.4998 9.48399 15.0603 10.9339 14.2363 12.167C13.4122 13.4003 12.2405 14.361 10.8701 14.9287C9.49973 15.4963 7.99191 15.6448 6.53711 15.3555C5.08225 15.0661 3.74518 14.3526 2.69629 13.3037C1.6474 12.2548 0.93392 10.9177 0.644531 9.46289C0.355194 8.00809 0.503657 6.50027 1.07129 5.12988C1.63895 3.7595 2.59968 2.58776 3.83301 1.76367C5.0661 0.939743 6.516 0.500193 7.99902 0.5ZM8 3.5C7.65526 3.5 7.32484 3.63712 7.08105 3.88086C6.8373 4.12461 6.70025 4.45509 6.7002 4.7998V8.00293C6.70205 8.34622 6.83817 8.67535 7.08008 8.91895L7.08203 8.91992L9.70117 11.5391C9.94495 11.7827 10.2754 11.9199 10.6201 11.9199C10.9648 11.9199 11.2953 11.7827 11.5391 11.5391C11.7827 11.2953 11.9199 10.9648 11.9199 10.6201C11.9199 10.2754 11.7827 9.94495 11.5391 9.70117L9.2998 7.46191V4.7998C9.29975 4.45509 9.1627 4.12461 8.91895 3.88086C8.67516 3.63712 8.34474 3.5 8 3.5Z" fill="#09090B" stroke="#09090B"/>
  </g>
  <defs>
    <clipPath id="clip0_302_15576">
      <rect width="16" height="16" fill="white"/>
    </clipPath>
  </defs>
</svg>