<svg xmlns="http://www.w3.org/2000/svg" width="24" height="24" viewBox="0 0 24 24" fill="none">
  <path fill-rule="evenodd" clip-rule="evenodd" d="M5 5H8.53544C8.77806 3.30385 10.2368 2 12 2C13.7632 2 15.2219 3.30385 15.4646 5H19C19.5523 5 20 5.44772 20 6C20 6.55228 19.5523 7 19 7H5C4.44772 7 4 6.55228 4 6C4 5.44772 4.44772 5 5 5ZM12 4C12.6531 4 13.2087 4.4174 13.4146 5H10.5854C10.7913 4.4174 11.3469 4 12 4Z" fill="#DF1C41"/>
  <path fill-rule="evenodd" clip-rule="evenodd" d="M17.847 8H6.15302C5.54447 8 5.07701 8.53899 5.16307 9.14142L6.63205 19.4243C6.84318 20.9022 8.10895 22 9.6019 22H14.3981C15.8911 22 17.1568 20.9022 17.368 19.4243L18.837 9.14142C18.923 8.53899 18.4556 8 17.847 8ZM10 11C10.5523 11 11 11.4477 11 12V18C11 18.5523 10.5523 19 10 19C9.44773 19 9.00001 18.5523 9.00001 18V12C9.00001 11.4477 9.44773 11 10 11ZM14 11C14.5523 11 15 11.4477 15 12V18C15 18.5523 14.5523 19 14 19C13.4477 19 13 18.5523 13 18V12C13 11.4477 13.4477 11 14 11Z" fill="#DF1C41"/>
</svg>