<svg xmlns="http://www.w3.org/2000/svg" width="46" height="48" viewBox="0 0 46 48" fill="none">
  <path d="M44.665 19.7608L44.6535 19.7127L38.0628 2.40172C37.9228 1.92647 37.6372 1.50959 37.248 1.2123C36.8588 0.915008 36.3865 0.752978 35.9005 0.75L9.18583 0.75C8.18848 0.75 7.30009 1.43572 7.01932 2.42633L0.85714 19.5608L0.83933 19.6036L0.828854 19.6517C0.750651 19.9442 0.73035 20.2497 0.769139 20.5503C0.763901 20.6466 0.757615 20.744 0.757615 20.8413V43.0593C0.757615 45.0929 2.36049 46.75 4.329 46.75H41.1701C43.1375 46.75 44.7415 45.0919 44.7467 43.0593V20.8402C44.7467 20.7611 44.7467 20.683 44.7415 20.6156C44.7645 20.3182 44.7415 20.0326 44.665 19.7598V19.7608ZM27.29 17.1506L27.2722 18.1027C27.225 20.8295 25.4042 22.6631 22.7433 22.6631C21.4452 22.6631 20.3295 22.232 19.5249 21.4115C18.7203 20.5931 18.2793 19.4517 18.2562 18.1027L18.2384 17.1506H6.14874L10.8201 5.41205H34.2693L39.0675 17.1485H27.29V17.1506ZM5.26244 21.8116H14.5026C15.9294 25.2787 18.9665 27.3252 22.7495 27.3252C24.7296 27.3252 26.5671 26.755 28.0537 25.6734C29.357 24.7267 30.3732 23.4023 31.0311 21.8116H40.2241V42.0858H5.26244V21.8127V21.8116Z" fill="#1C64F2" stroke="#F4F5F6" stroke-width="1.5"/>
</svg>