<svg xmlns="http://www.w3.org/2000/svg" width="14" height="14" viewBox="0 0 14 14" fill="none">
  <path d="M1.68156 3.55612H12.3734C12.7122 3.55612 12.9866 3.28172 12.9866 2.94292C12.9866 2.60412 12.7122 2.32972 12.3734 2.32972H1.68156C1.34276 2.32972 1.06836 2.60412 1.06836 2.94292C1.06836 3.28172 1.34276 3.55612 1.68156 3.55612ZM5.11016 6.22032V9.70492C5.11016 10.0437 5.38456 10.3181 5.72336 10.3181C6.06216 10.3181 6.33656 10.0437 6.33656 9.70492V6.22032C6.33656 5.88152 6.06216 5.60712 5.72336 5.60712C5.38596 5.60712 5.11016 5.88152 5.11016 6.22032ZM7.71696 6.17692V9.70492C7.71696 10.0437 7.99136 10.3181 8.33016 10.3181C8.66896 10.3181 8.94336 10.0437 8.94336 9.70492V6.17692C8.94336 5.83812 8.66896 5.56372 8.33016 5.56372C7.99136 5.56372 7.71696 5.83812 7.71696 6.17692ZM5.07096 1.82992H9.14916C9.45296 1.82992 9.69936 1.55552 9.69936 1.21672C9.69936 0.877916 9.45296 0.603516 9.14916 0.603516H5.07096C4.76716 0.603516 4.52076 0.877916 4.52076 1.21672C4.52076 1.55552 4.76716 1.82992 5.07096 1.82992Z" fill="white"/>
  <path d="M10.408 3.67082V11.6396C10.408 11.9266 10.1518 12.159 9.86616 12.159H4.18916C3.90216 12.159 3.66976 11.9266 3.66976 11.6396V3.67082C3.66976 3.33202 3.39536 3.05762 3.05656 3.05762C2.71776 3.05762 2.44336 3.33202 2.44336 3.67082V11.6396C2.44336 12.6028 3.22456 13.3854 4.18916 13.3854H9.86476C10.828 13.3854 11.633 12.6042 11.633 11.6396V3.67082C11.633 3.33202 11.3586 3.05762 11.0198 3.05762C10.6824 3.05622 10.408 3.33202 10.408 3.67082Z" fill="white"/>
</svg>