<svg xmlns="http://www.w3.org/2000/svg" width="28" height="28" viewBox="0 0 28 28" fill="none">
  <path d="M21.8961 3.8976C22.1062 4.0803 22.2352 4.33898 22.2546 4.61675C22.274 4.89452 22.1823 5.16864 21.9997 5.3788L15.6087 12.733L17.6611 15.0948L17.6975 15.1382L17.7297 15.183C18.7898 14.6055 20.0259 14.4395 21.2008 14.717C22.3758 14.9945 23.407 15.6958 24.0968 16.6866C24.7866 17.6773 25.0865 18.8878 24.939 20.0861C24.7915 21.2843 24.207 22.3859 23.2975 23.1798C22.3852 23.9731 21.2119 24.4012 20.0031 24.3818C18.7943 24.3623 17.6354 23.8967 16.7491 23.0743C15.8629 22.252 15.312 21.1311 15.2022 19.9272C15.0925 18.7232 15.4317 17.5212 16.1547 16.5522L16.0763 16.4738L14.2171 14.3332L12.3579 16.4738L12.2795 16.5522C13.0001 17.5216 13.3374 18.7229 13.2266 19.9258C13.1159 21.1286 12.5648 22.2481 11.6793 23.0696C10.7938 23.8911 9.63611 24.3567 8.42839 24.377C7.22066 24.3974 6.04796 23.971 5.13527 23.1798C4.22124 22.3873 3.6327 21.2846 3.48299 20.0841C3.33328 18.8836 3.63296 17.6701 4.32435 16.6774C5.01574 15.6846 6.04996 14.9827 7.22787 14.7068C8.40579 14.4309 9.64413 14.6005 10.7045 15.183C10.7258 15.1524 10.7487 15.123 10.7731 15.0948L12.8227 12.733L6.43027 5.3788C6.26495 5.1888 6.17342 4.9457 6.1724 4.69384C6.17137 4.44199 6.2609 4.19815 6.42467 4.0068L6.53387 3.8976C6.74404 3.71494 7.01816 3.62324 7.29593 3.64267C7.5737 3.6621 7.83238 3.79106 8.01507 4.0012L14.2157 11.1328L20.4149 4.0012C20.5976 3.79106 20.8562 3.6621 21.134 3.64267C21.4118 3.62324 21.6859 3.71494 21.8961 3.8976ZM6.23567 17.6456C5.99271 17.9229 5.80689 18.2454 5.68887 18.5946C5.57086 18.9439 5.52297 19.313 5.54797 19.6808C5.57297 20.0486 5.67035 20.4079 5.83453 20.738C5.99872 21.068 6.22647 21.3624 6.50471 21.6043C6.78296 21.8461 7.10622 22.0306 7.45595 22.1472C7.80569 22.2638 8.175 22.3102 8.54271 22.2837C8.91041 22.2572 9.26926 22.1584 9.59867 21.9929C9.92808 21.8274 10.2216 21.5984 10.4623 21.3192C10.9459 20.7582 11.1875 20.0285 11.1343 19.2898C11.0811 18.5511 10.7373 17.8635 10.1783 17.3777C9.61934 16.8918 8.89061 16.6472 8.15167 16.6974C7.41274 16.7476 6.7238 17.0886 6.23567 17.6456ZM22.1957 17.6456C21.9545 17.368 21.6609 17.1406 21.3318 16.9764C21.0028 16.8123 20.6446 16.7145 20.2777 16.6888C19.9108 16.663 19.5425 16.7098 19.1937 16.8264C18.8449 16.943 18.5225 17.1272 18.2449 17.3684C17.9673 17.6096 17.7399 17.9031 17.5757 18.2322C17.4115 18.5613 17.3138 18.9195 17.288 19.2864C17.2623 19.6533 17.3091 20.0216 17.4257 20.3704C17.5423 20.7192 17.7265 21.0416 17.9677 21.3192C18.4548 21.8799 19.1447 22.2241 19.8857 22.276C20.6266 22.328 21.3578 22.0836 21.9185 21.5964C22.4791 21.1093 22.8233 20.4193 22.8753 19.6784C22.9273 18.9375 22.6828 18.2063 22.1957 17.6456Z" fill="white"/>
</svg>