<svg xmlns="http://www.w3.org/2000/svg" width="16" height="16" viewBox="0 0 16 16" fill="none">
  <path d="M9.19259 7.65L14.9669 1.87564C15.0711 1.77501 15.1543 1.65463 15.2114 1.52153C15.2686 1.38843 15.2987 1.24528 15.3 1.10042C15.3012 0.955567 15.2736 0.811912 15.2188 0.677839C15.1639 0.543767 15.0829 0.421961 14.9805 0.319529C14.878 0.217098 14.7562 0.136092 14.6222 0.0812384C14.4881 0.0263849 14.3444 -0.00121756 14.1996 4.11907e-05C14.0547 0.00129994 13.9116 0.031395 13.7785 0.0885701C13.6454 0.145745 13.525 0.228856 13.4244 0.333052L7.65 6.10741L1.87564 0.333052C1.66989 0.134328 1.39432 0.0243668 1.10827 0.0268524C0.822232 0.029338 0.54861 0.144072 0.346341 0.346341C0.144072 0.54861 0.029338 0.822232 0.0268524 1.10827C0.0243668 1.39432 0.134328 1.66989 0.333052 1.87564L6.10741 7.65L0.333052 13.4244C0.228856 13.525 0.145745 13.6454 0.0885701 13.7785C0.031395 13.9116 0.00129994 14.0547 4.11907e-05 14.1996C-0.00121756 14.3444 0.0263849 14.4881 0.0812384 14.6222C0.136092 14.7562 0.217098 14.878 0.319529 14.9805C0.421961 15.0829 0.543767 15.1639 0.677839 15.2188C0.811912 15.2736 0.955567 15.3012 1.10042 15.3C1.24528 15.2987 1.38843 15.2686 1.52153 15.2114C1.65463 15.1543 1.77501 15.0711 1.87564 14.9669L7.65 9.19259L13.4244 14.9669C13.6301 15.1657 13.9057 15.2756 14.1917 15.2731C14.4778 15.2707 14.7514 15.1559 14.9537 14.9537C15.1559 14.7514 15.2707 14.4778 15.2731 14.1917C15.2756 13.9057 15.1657 13.6301 14.9669 13.4244L9.19259 7.65Z" fill="#52525B"/>
</svg>