<svg xmlns="http://www.w3.org/2000/svg" width="24" height="24" viewBox="0 0 24 24" fill="none">
  <g clip-path="url(#clip0_671_10403)">
    <path d="M5.28941 0.000977415C5.02325 0.00104733 4.76766 0.102613 4.57725 0.283979L0.807843 3.87274C0.554437 4.08658 0.351149 4.35107 0.211764 4.64827C0.0723803 4.94546 0.000159671 5.26841 0 5.59522V21.763C0 22.9562 0.96 24.001 2.24 24.001H21.76C23.04 24.001 24 22.9577 24 21.763V5.59522C23.9998 5.26954 23.9279 4.94769 23.7894 4.65136C23.6509 4.35503 23.4488 4.09109 23.1969 3.87732L19.4227 0.282449C19.2321 0.101643 18.9765 0.000638078 18.7106 0.000977415H5.28941ZM19.7333 3.35721H4.26824L5.7051 1.98963H18.2949L19.7318 3.35721H19.7333ZM2.08627 5.43765L2.14902 5.37646C2.17583 5.35821 2.20734 5.34761 2.24 5.34587H21.76C21.7851 5.34587 21.8196 5.35505 21.8541 5.37646L21.9137 5.43459C21.9461 5.48209 21.9625 5.53821 21.9608 5.59522V21.763C21.9608 21.942 21.829 22.0123 21.76 22.0123H2.24C2.17098 22.0123 2.03922 21.942 2.03922 21.763V5.59522C2.03779 5.53873 2.05422 5.48319 2.08627 5.43612V5.43765Z" fill="white" stroke="white" stroke-width="0.5"/>
    <path d="M9.69338 14.22C9.59414 14.1476 9.48024 14.0914 9.35732 14.0542C9.0993 13.9758 8.81788 13.9749 8.55918 14.0516C8.43595 14.0879 8.32154 14.1432 8.22162 14.2149C8.12764 14.2821 8.05101 14.3652 7.99658 14.4592C7.94462 14.5491 7.91771 14.6482 7.91797 14.7486C7.91823 14.849 7.94565 14.948 7.99808 15.0377C8.05381 15.1309 8.13145 15.2132 8.22612 15.2794L11.6842 17.7801C11.8888 17.9231 12.1449 18.0008 12.4089 18H12.4269C12.6909 18.0011 12.9471 17.9234 13.1515 17.7801L16.6096 15.2794C16.7044 15.2129 16.7821 15.1301 16.8377 15.0364C16.89 14.9469 16.9174 14.8482 16.918 14.7481C16.9185 14.648 16.892 14.5491 16.8407 14.4592C16.7861 14.3653 16.7095 14.2821 16.6156 14.2149C16.5152 14.1431 16.4003 14.0878 16.2766 14.0516C16.0179 13.9749 15.7364 13.9758 15.4784 14.0542C15.3555 14.0914 15.2416 14.1476 15.1423 14.22L13.4545 15.4402V9.74964C13.4522 9.6476 13.4238 9.54725 13.3711 9.45571C13.3185 9.36416 13.243 9.28367 13.15 9.21993C12.9434 9.07566 12.6844 8.99788 12.4179 9.00007C12.151 8.99732 11.8915 9.07464 11.6842 9.21864C11.5913 9.28264 11.516 9.3634 11.4636 9.45518C11.4112 9.54695 11.3831 9.64749 11.3812 9.74964V15.4402L9.69638 14.22H9.69338Z" fill="white" stroke="white" stroke-width="0.5"/>
  </g>
  <defs>
    <clipPath id="clip0_671_10403">
      <rect width="24" height="24" fill="white"/>
    </clipPath>
  </defs>
</svg>