<svg xmlns="http://www.w3.org/2000/svg" width="40" height="40" viewBox="0 0 40 40" fill="none">
  <path d="M19.9417 37.2128C15.3197 37.2128 10.9568 35.4198 7.68953 32.1725C4.42229 28.9252 2.60938 24.5822 2.60938 19.9602C2.60938 15.3383 4.40237 11.0152 7.68953 7.76785C10.9767 4.52054 15.2998 2.72754 19.9217 2.72754C24.5437 2.72754 28.9066 4.52054 32.1739 7.76785C35.4411 11.0152 37.254 15.3582 37.254 19.9602C37.254 24.5622 35.461 28.9053 32.1739 32.1526C28.8867 35.3999 24.5636 37.2128 19.9417 37.2128ZM19.9417 5.19789C15.9772 5.19789 12.2517 6.7319 9.44268 9.521C6.63366 12.3101 5.07973 16.0156 5.07973 19.9602C5.07973 23.9048 6.61373 27.6103 9.42276 30.3994C12.2318 33.1885 15.9572 34.7226 19.9217 34.7226C23.8863 34.7226 27.6117 33.1885 30.4207 30.3994C33.2298 27.6103 34.7638 23.9048 34.7638 19.9602C34.7638 16.0156 33.2298 12.3101 30.4207 9.521C27.6117 6.7319 23.9062 5.19789 19.9417 5.19789ZM25.2011 13.0074L19.9616 18.2469L14.7021 13.0074C14.2041 12.5492 13.4072 12.589 12.949 13.0871C12.5107 13.5652 12.5107 14.2824 12.949 14.7605L18.2084 20.0001L12.949 25.2595C12.4908 25.7576 12.5306 26.5545 13.0287 27.0127C13.5068 27.451 14.224 27.451 14.7021 27.0127L19.9417 21.7731L25.1812 27.0127C25.6793 27.4709 26.4761 27.431 26.9344 26.933C27.3726 26.4549 27.3726 25.7377 26.9344 25.2595L21.6948 20.0001L26.9344 14.7605C27.4324 14.3023 27.4723 13.5054 27.014 13.0074C26.5558 12.5093 25.7589 12.4695 25.2609 12.9277C25.241 12.9476 25.221 12.9875 25.2011 13.0074Z" fill="white" fill-opacity="0.8"/>
</svg>