<svg xmlns="http://www.w3.org/2000/svg" width="14" height="14" viewBox="0 0 14 14" fill="none">
  <path d="M13.3 8.9866V13.2222C13.3 13.6517 12.954 14 12.527 14H0.773468C0.346447 14 0 13.6517 0 13.2222V8.9866C0 8.55708 0.346228 8.20883 0.773265 8.20883C1.2003 8.20883 1.54651 8.55708 1.54651 8.9866V12.4444H11.7535V8.9866C11.7535 8.55708 12.0997 8.20883 12.5267 8.20883C12.9538 8.20883 13.3 8.55708 13.3 8.9866ZM6.09775 9.96208C6.16976 10.036 6.25571 10.0948 6.35057 10.1349C6.44543 10.175 6.5473 10.1956 6.6502 10.1956C6.75311 10.1956 6.85497 10.175 6.94984 10.1349C7.0447 10.0948 7.13065 10.036 7.20265 9.96208L10.2875 6.79409C10.5863 6.48723 10.5813 5.99481 10.2761 5.69421C9.97097 5.3937 9.48132 5.39873 9.18251 5.70565L7.42325 7.51221V0.777771C7.42325 0.348253 7.07702 0 6.65 0C6.22298 0 5.87675 0.348253 5.87675 0.777771V7.5121L4.11799 5.70566C3.81918 5.3988 3.32984 5.39378 3.02456 5.69419C2.71947 5.99475 2.71438 6.48716 3.01319 6.79408L6.09775 9.96208Z" fill="white"/>
</svg>