<svg xmlns="http://www.w3.org/2000/svg" width="24" height="24" viewBox="0 0 24 24" fill="none">
  <path d="M22.918 15.1218V21.7778C22.918 22.4527 22.3716 23 21.6974 23H3.13923C2.46499 23 1.91797 22.4527 1.91797 21.7778V15.1218C1.91797 14.4468 2.46465 13.8996 3.13891 13.8996C3.81318 13.8996 4.35983 14.4468 4.35983 15.1218V20.5556H20.4761V15.1218C20.4761 14.4468 21.0228 13.8996 21.697 13.8996C22.3713 13.8996 22.918 14.4468 22.918 15.1218ZM11.546 16.6547C11.6597 16.7709 11.7954 16.8632 11.9452 16.9262C12.095 16.9893 12.2558 17.0217 12.4183 17.0217C12.5808 17.0217 12.7416 16.9893 12.8914 16.9262C13.0412 16.8632 13.1769 16.7709 13.2906 16.6547L18.1614 11.6764C18.6332 11.1942 18.6252 10.4204 18.1434 9.94804C17.6616 9.47582 16.8885 9.48372 16.4167 9.96602L13.6389 12.8049V2.22221C13.6389 1.54725 13.0922 1 12.418 1C11.7437 1 11.197 1.54725 11.197 2.22221V12.8047L8.42005 9.96604C7.94826 9.48382 7.17562 9.47594 6.69359 9.94802C6.21188 10.4203 6.20383 11.1941 6.67563 11.6764L11.546 16.6547Z" fill="#545F7E"/>
</svg>