<svg xmlns="http://www.w3.org/2000/svg" width="24" height="24" viewBox="0 0 24 24" fill="none">
  <g clip-path="url(#clip0_666_6071)">
    <path d="M22.476 4.06138C22.1181 3.69119 21.6889 3.3973 21.2144 3.19746C20.7398 2.99761 20.2296 2.89594 19.7147 2.89857C19.6329 2.88307 19.5487 2.8858 19.4681 2.90657C19.3875 2.92734 19.3125 2.96564 19.2484 3.01873C19.1843 3.07183 19.1327 3.13841 19.0973 3.21374C19.0618 3.28906 19.0435 3.37128 19.0435 3.45452C19.0435 3.53775 19.0618 3.61997 19.0973 3.69529C19.1327 3.77062 19.1843 3.83721 19.2484 3.8903C19.3125 3.9434 19.3875 3.98169 19.4681 4.00246C19.5487 4.02323 19.6329 4.02596 19.7147 4.01046C20.0832 4.01113 20.4478 4.08523 20.7873 4.22843C21.1267 4.37163 21.4343 4.58105 21.6919 4.84446C21.9495 5.10787 22.152 5.41999 22.2876 5.76256C22.4232 6.10514 22.4892 6.47131 22.4817 6.83968V18.7224C22.4817 20.3888 21.3811 21.645 19.9354 21.645H4.65762C3.02516 21.645 1.54548 20.253 1.54548 18.7224V6.83968C1.54548 5.30341 2.90916 4.01046 4.52464 4.01046C4.65412 3.98591 4.77097 3.91694 4.85503 3.81545C4.93909 3.71395 4.98509 3.5863 4.98509 3.45452C4.98509 3.32273 4.93909 3.19508 4.85503 3.09359C4.77097 2.99209 4.65412 2.92312 4.52464 2.89857C2.30654 2.89857 0.433594 4.70644 0.433594 6.85948V18.7422C0.447157 19.2777 0.56982 19.8048 0.79408 20.2913C1.01834 20.7777 1.33948 21.2133 1.73786 21.5714C2.52958 22.3163 3.57072 22.739 4.65762 22.7569H19.9354C20.4449 22.7605 20.949 22.6522 21.4119 22.4395C21.8749 22.2269 22.2855 21.9151 22.6147 21.5262C23.2668 20.7388 23.6169 19.7447 23.6021 18.7224V6.83968C23.6052 5.80182 23.2009 4.80419 22.476 4.06138Z" fill="white"/>
    <path d="M19.9262 23.1698H4.64841C3.45889 23.1532 2.31817 22.6943 1.44856 21.8825C1.00379 21.4828 0.645757 20.9962 0.396598 20.4526C0.147439 19.909 0.0124569 19.3201 0 18.7223L0 6.83956C0 4.47716 2.06816 2.47407 4.52675 2.47407C4.77764 2.48755 5.01381 2.59672 5.18664 2.77908C5.35947 2.96145 5.45581 3.20314 5.45581 3.4544C5.45581 3.70565 5.35947 3.94734 5.18664 4.12971C5.01381 4.31207 4.77764 4.42124 4.52675 4.43472C3.14043 4.43472 1.98045 5.53812 1.98045 6.84521V18.7279C1.98045 20.0124 3.29038 21.2261 4.6767 21.2261H19.9545C21.1682 21.2261 22.0849 20.151 22.0849 18.7279V6.84521C22.0928 6.53222 22.0381 6.22079 21.924 5.92921C21.81 5.63763 21.6388 5.37177 21.4206 5.14724C21.2024 4.92271 20.9415 4.74402 20.6533 4.62166C20.3651 4.49931 20.0554 4.43575 19.7423 4.43472C19.6091 4.44188 19.4759 4.42183 19.3507 4.37579C19.2256 4.32976 19.1111 4.25871 19.0143 4.16697C18.9175 4.07524 18.8404 3.96474 18.7877 3.84223C18.735 3.71972 18.7079 3.58776 18.7079 3.4544C18.7079 3.32104 18.735 3.18907 18.7877 3.06656C18.8404 2.94405 18.9175 2.83355 19.0143 2.74182C19.1111 2.65008 19.2256 2.57903 19.3507 2.533C19.4759 2.48696 19.6091 2.46691 19.7423 2.47407C20.314 2.47143 20.8804 2.58435 21.4074 2.80605C21.9344 3.02775 22.4112 3.35365 22.8092 3.76419C23.5972 4.59499 24.0306 5.70017 24.0172 6.84521V18.7279C24.028 19.8505 23.6377 20.94 22.9167 21.8005C22.5485 22.2333 22.0899 22.5802 21.5733 22.8167C21.0566 23.0533 20.4944 23.1738 19.9262 23.1698ZM4.52675 3.32284C2.5463 3.32284 0.848766 4.93549 0.848766 6.84521V18.7279C0.859734 19.2104 0.969887 19.6855 1.17237 20.1235C1.37485 20.5616 1.66533 20.9533 2.02572 21.2742C2.74221 21.938 3.68022 22.3112 4.65689 22.321H19.9347C20.383 22.3246 20.8265 22.2293 21.2339 22.042C21.6412 21.8547 22.0023 21.58 22.2914 21.2375C22.8786 20.5279 23.1927 19.6318 23.177 18.711V6.82824C23.1835 5.90001 22.826 5.00619 22.1811 4.33853C21.8622 4.00937 21.48 3.74818 21.0574 3.5707C20.6349 3.39323 20.1808 3.30314 19.7225 3.30586C19.7036 3.30308 19.6843 3.30441 19.666 3.30974C19.6476 3.31508 19.6307 3.3243 19.6162 3.33679C19.6018 3.34927 19.5902 3.36472 19.5822 3.38208C19.5743 3.39945 19.5702 3.41832 19.5702 3.43742C19.5702 3.45652 19.5743 3.47539 19.5822 3.49276C19.5902 3.51012 19.6018 3.52557 19.6162 3.53805C19.6307 3.55054 19.6476 3.55976 19.666 3.5651C19.6843 3.57043 19.7036 3.57176 19.7225 3.56898C20.1491 3.56845 20.5714 3.65344 20.9646 3.81894C21.3577 3.98443 21.7137 4.22707 22.0115 4.5325C22.3093 4.83793 22.5428 5.19996 22.6983 5.59719C22.8538 5.99442 22.928 6.41879 22.9167 6.84521V18.7279C22.9167 20.6235 21.6237 22.0692 19.9262 22.0692H4.64841C2.79244 22.0692 1.1034 20.4736 1.1034 18.7223V6.83956C1.1034 5.07412 2.66229 3.5803 4.49846 3.5803C4.53003 3.57565 4.55889 3.55981 4.57975 3.53566C4.60061 3.5115 4.61209 3.48065 4.61209 3.44874C4.61209 3.41682 4.60061 3.38597 4.57975 3.36182C4.55889 3.33767 4.53003 3.32182 4.49846 3.31718L4.52675 3.32284Z" fill="white"/>
    <path d="M6.96205 9.08891H5.30696C5.05607 9.10239 4.8199 9.21155 4.64707 9.39392C4.47424 9.57629 4.37791 9.81798 4.37791 10.0692C4.37791 10.3205 4.47424 10.5622 4.64707 10.7445C4.8199 10.9269 5.05607 11.0361 5.30696 11.0496H6.96205C7.21295 11.0361 7.44912 10.9269 7.62195 10.7445C7.79478 10.5622 7.89111 10.3205 7.89111 10.0692C7.89111 9.81798 7.79478 9.57629 7.62195 9.39392C7.44912 9.21155 7.21295 9.10239 6.96205 9.08891ZM12.7506 9.08891H11.0984C10.9652 9.08175 10.832 9.1018 10.7068 9.14783C10.5816 9.19387 10.4672 9.26492 10.3704 9.35665C10.2736 9.44839 10.1965 9.55888 10.1438 9.6814C10.0911 9.80391 10.064 9.93587 10.064 10.0692C10.064 10.2026 10.0911 10.3346 10.1438 10.4571C10.1965 10.5796 10.2736 10.6901 10.3704 10.7818C10.4672 10.8735 10.5816 10.9446 10.7068 10.9906C10.832 11.0367 10.9652 11.0567 11.0984 11.0496H12.7506C12.8838 11.0567 13.017 11.0367 13.1422 10.9906C13.2674 10.9446 13.3818 10.8735 13.4786 10.7818C13.5754 10.6901 13.6525 10.5796 13.7052 10.4571C13.7579 10.3346 13.7851 10.2026 13.7851 10.0692C13.7851 9.93587 13.7579 9.80391 13.7052 9.6814C13.6525 9.55888 13.5754 9.44839 13.4786 9.35665C13.3818 9.26492 13.2674 9.19387 13.1422 9.14783C13.017 9.1018 12.8838 9.08175 12.7506 9.08891ZM16.887 11.0496H18.542C18.7929 11.0361 19.0291 10.9269 19.2019 10.7445C19.3748 10.5622 19.4711 10.3205 19.4711 10.0692C19.4711 9.81798 19.3748 9.57629 19.2019 9.39392C19.0291 9.21155 18.7929 9.10239 18.542 9.08891H16.887C16.6361 9.10239 16.3999 9.21155 16.2271 9.39392C16.0542 9.57629 15.9579 9.81798 15.9579 10.0692C15.9579 10.3205 16.0542 10.5622 16.2271 10.7445C16.3999 10.9269 16.6361 11.0361 16.887 11.0496ZM6.96205 12.3991H5.30696C5.05607 12.4126 4.8199 12.5217 4.64707 12.7041C4.47424 12.8865 4.37791 13.1282 4.37791 13.3794C4.37791 13.6307 4.47424 13.8724 4.64707 14.0547C4.8199 14.2371 5.05607 14.3463 5.30696 14.3597H6.96205C7.21295 14.3463 7.44912 14.2371 7.62195 14.0547C7.79478 13.8724 7.89111 13.6307 7.89111 13.3794C7.89111 13.1282 7.79478 12.8865 7.62195 12.7041C7.44912 12.5217 7.21295 12.4126 6.96205 12.3991ZM12.7506 12.3991H11.0984C10.9652 12.3919 10.832 12.412 10.7068 12.458C10.5816 12.5041 10.4672 12.5751 10.3704 12.6668C10.2736 12.7586 10.1965 12.8691 10.1438 12.9916C10.0911 13.1141 10.064 13.2461 10.064 13.3794C10.064 13.5128 10.0911 13.6447 10.1438 13.7673C10.1965 13.8898 10.2736 14.0003 10.3704 14.092C10.4672 14.1837 10.5816 14.2548 10.7068 14.3008C10.832 14.3468 10.9652 14.3669 11.0984 14.3597H12.7506C12.8838 14.3669 13.017 14.3468 13.1422 14.3008C13.2674 14.2548 13.3818 14.1837 13.4786 14.092C13.5754 14.0003 13.6525 13.8898 13.7052 13.7673C13.7579 13.6447 13.7851 13.5128 13.7851 13.3794C13.7851 13.2461 13.7579 13.1141 13.7052 12.9916C13.6525 12.8691 13.5754 12.7586 13.4786 12.6668C13.3818 12.5751 13.2674 12.5041 13.1422 12.458C13.017 12.412 12.8838 12.3919 12.7506 12.3991ZM18.542 12.3991H16.887C16.6361 12.4126 16.3999 12.5217 16.2271 12.7041C16.0542 12.8865 15.9579 13.1282 15.9579 13.3794C15.9579 13.6307 16.0542 13.8724 16.2271 14.0547C16.3999 14.2371 16.6361 14.3463 16.887 14.3597H18.542C18.7929 14.3463 19.0291 14.2371 19.2019 14.0547C19.3748 13.8724 19.4711 13.6307 19.4711 13.3794C19.4711 13.1282 19.3748 12.8865 19.2019 12.7041C19.0291 12.5217 18.7929 12.4126 18.542 12.3991ZM6.96205 15.7064H5.30696C5.05607 15.7199 4.8199 15.8291 4.64707 16.0115C4.47424 16.1938 4.37791 16.4355 4.37791 16.6868C4.37791 16.938 4.47424 17.1797 4.64707 17.3621C4.8199 17.5445 5.05607 17.6536 5.30696 17.6671H6.96205C7.21295 17.6536 7.44912 17.5445 7.62195 17.3621C7.79478 17.1797 7.89111 16.938 7.89111 16.6868C7.89111 16.4355 7.79478 16.1938 7.62195 16.0115C7.44912 15.8291 7.21295 15.7199 6.96205 15.7064ZM12.7506 15.7064H11.0984C10.9652 15.6993 10.832 15.7193 10.7068 15.7654C10.5816 15.8114 10.4672 15.8825 10.3704 15.9742C10.2736 16.0659 10.1965 16.1764 10.1438 16.2989C10.0911 16.4215 10.064 16.5534 10.064 16.6868C10.064 16.8201 10.0911 16.9521 10.1438 17.0746C10.1965 17.1971 10.2736 17.3076 10.3704 17.3994C10.4672 17.4911 10.5816 17.5621 10.7068 17.6082C10.832 17.6542 10.9652 17.6743 11.0984 17.6671H12.7506C12.8838 17.6743 13.017 17.6542 13.1422 17.6082C13.2674 17.5621 13.3818 17.4911 13.4786 17.3994C13.5754 17.3076 13.6525 17.1971 13.7052 17.0746C13.7579 16.9521 13.7851 16.8201 13.7851 16.6868C13.7851 16.5534 13.7579 16.4215 13.7052 16.2989C13.6525 16.1764 13.5754 16.0659 13.4786 15.9742C13.3818 15.8825 13.2674 15.8114 13.1422 15.7654C13.017 15.7193 12.8838 15.6993 12.7506 15.7064ZM18.542 15.7064H16.887C16.6361 15.7199 16.3999 15.8291 16.2271 16.0115C16.0542 16.1938 15.9579 16.4355 15.9579 16.6868C15.9579 16.938 16.0542 17.1797 16.2271 17.3621C16.3999 17.5445 16.6361 17.6536 16.887 17.6671H18.542C18.7929 17.6536 19.0291 17.5445 19.2019 17.3621C19.3748 17.1797 19.4711 16.938 19.4711 16.6868C19.4711 16.4355 19.3748 16.1938 19.2019 16.0115C19.0291 15.8291 18.7929 15.7199 18.542 15.7064ZM19.5832 2.89857H4.2064C4.12461 2.88307 4.04042 2.8858 3.95981 2.90657C3.87921 2.92734 3.80418 2.96564 3.74007 3.01873C3.67596 3.07183 3.62436 3.13841 3.58894 3.21374C3.55352 3.28906 3.53516 3.37128 3.53516 3.45452C3.53516 3.53775 3.55352 3.61997 3.58894 3.69529C3.62436 3.77062 3.67596 3.83721 3.74007 3.8903C3.80418 3.9434 3.87921 3.98169 3.95981 4.00246C4.04042 4.02323 4.12461 4.02596 4.2064 4.01046H19.5832C19.7127 3.98591 19.8295 3.91694 19.9136 3.81545C19.9977 3.71395 20.0436 3.5863 20.0436 3.45452C20.0436 3.32273 19.9977 3.19508 19.9136 3.09359C19.8295 2.99209 19.7127 2.92312 19.5832 2.89857Z" fill="white"/>
    <path d="M19.5831 4.43472H4.2063C4.07313 4.44188 3.9399 4.42183 3.81474 4.37579C3.68957 4.32976 3.5751 4.25871 3.4783 4.16697C3.38151 4.07524 3.30441 3.96474 3.25173 3.84223C3.19905 3.71972 3.17187 3.58776 3.17188 3.4544C3.17187 3.32103 3.19905 3.18907 3.25173 3.06656C3.30441 2.94405 3.38151 2.83355 3.4783 2.74182C3.5751 2.65008 3.68957 2.57903 3.81474 2.533C3.9399 2.48696 4.07313 2.46691 4.2063 2.47407H19.5831C19.834 2.48755 20.0702 2.59672 20.243 2.77908C20.4158 2.96145 20.5122 3.20314 20.5122 3.4544C20.5122 3.70565 20.4158 3.94734 20.243 4.12971C20.0702 4.31207 19.834 4.42124 19.5831 4.43472ZM4.2063 3.32284C4.1874 3.32006 4.16813 3.32138 4.1498 3.32672C4.13146 3.33206 4.11449 3.34128 4.10003 3.35376C4.08558 3.36624 4.07399 3.38169 4.06604 3.39906C4.05809 3.41642 4.05398 3.4353 4.05398 3.4544C4.05398 3.47349 4.05809 3.49237 4.06604 3.50973C4.07399 3.5271 4.08558 3.54255 4.10003 3.55503C4.11449 3.56751 4.13146 3.57674 4.1498 3.58207C4.16813 3.58741 4.1874 3.58873 4.2063 3.58595H19.5831C19.6147 3.58131 19.6435 3.56547 19.6644 3.54131C19.6853 3.51716 19.6967 3.48631 19.6967 3.4544C19.6967 3.42248 19.6853 3.39163 19.6644 3.36748C19.6435 3.34332 19.6147 3.32748 19.5831 3.32284H4.2063Z" fill="white"/>
    <path d="M6.96428 1.24316C6.88997 1.24316 6.81639 1.2578 6.74774 1.28624C6.67909 1.31467 6.61671 1.35635 6.56417 1.4089C6.51163 1.46144 6.46995 1.52382 6.44151 1.59247C6.41307 1.66112 6.39844 1.7347 6.39844 1.80901V5.11919C6.42441 5.24711 6.49381 5.36211 6.59487 5.44471C6.69593 5.52731 6.82244 5.57244 6.95296 5.57244C7.08349 5.57244 7.21 5.52731 7.31106 5.44471C7.41212 5.36211 7.48152 5.24711 7.50749 5.11919V1.79769C7.50472 1.65343 7.44694 1.51567 7.34597 1.41259C7.24499 1.30952 7.10846 1.24891 6.96428 1.24316Z" fill="white"/>
    <path d="M6.96329 6.08734C6.70366 6.08734 6.45467 5.98421 6.27109 5.80063C6.08751 5.61704 5.98438 5.36806 5.98438 5.10843V1.79825C5.98438 1.53862 6.08751 1.28963 6.27109 1.10605C6.45467 0.922471 6.70366 0.819336 6.96329 0.819336C7.22291 0.819336 7.4719 0.922471 7.65548 1.10605C7.83906 1.28963 7.94219 1.53862 7.94219 1.79825V5.10843C7.94219 5.36806 7.83906 5.61704 7.65548 5.80063C7.4719 5.98421 7.22291 6.08734 6.96329 6.08734ZM6.96329 1.6681C6.92877 1.6681 6.89567 1.68181 6.87126 1.70622C6.84685 1.73063 6.83314 1.76373 6.83314 1.79825V5.10843C6.83314 5.14295 6.84685 5.17605 6.87126 5.20046C6.89567 5.22486 6.92877 5.23858 6.96329 5.23858C6.9978 5.23858 7.0309 5.22486 7.05531 5.20046C7.07972 5.17605 7.09343 5.14295 7.09343 5.10843V1.79825C7.09343 1.78116 7.09006 1.76423 7.08352 1.74844C7.07698 1.73265 7.0674 1.7183 7.05531 1.70622C7.04323 1.69413 7.02888 1.68455 7.01309 1.67801C6.9973 1.67147 6.98038 1.6681 6.96329 1.6681ZM16.8882 1.24372C16.8139 1.24372 16.7403 1.25835 16.6716 1.28679C16.603 1.31523 16.5406 1.35691 16.4881 1.40945C16.4355 1.46199 16.3939 1.52437 16.3654 1.59302C16.337 1.66167 16.3223 1.73526 16.3223 1.80956V5.11975C16.3483 5.24766 16.4177 5.36266 16.5188 5.44527C16.6198 5.52787 16.7463 5.57299 16.8769 5.57299C17.0074 5.57299 17.1339 5.52787 17.235 5.44527C17.336 5.36266 17.4054 5.24766 17.4314 5.11975V1.79825C17.4286 1.65398 17.3708 1.51622 17.2699 1.41315C17.1689 1.31007 17.0324 1.24946 16.8882 1.24372Z" fill="white"/>
    <path d="M16.8873 6.08734C16.6276 6.08734 16.3787 5.98421 16.1951 5.80063C16.0115 5.61704 15.9084 5.36806 15.9084 5.10843V1.79825C15.9084 1.53862 16.0115 1.28963 16.1951 1.10605C16.3787 0.922471 16.6276 0.819336 16.8873 0.819336C17.1469 0.819336 17.3959 0.922471 17.5795 1.10605C17.763 1.28963 17.8662 1.53862 17.8662 1.79825V5.10843C17.8662 5.23698 17.8409 5.36428 17.7917 5.48304C17.7425 5.60181 17.6704 5.70973 17.5795 5.80063C17.4886 5.89153 17.3806 5.96363 17.2619 6.01283C17.1431 6.06202 17.0158 6.08734 16.8873 6.08734ZM16.8873 1.6681C16.8528 1.6681 16.8196 1.68181 16.7952 1.70622C16.7708 1.73063 16.7571 1.76373 16.7571 1.79825V5.10843C16.7571 5.14295 16.7708 5.17605 16.7952 5.20046C16.8196 5.22486 16.8528 5.23858 16.8873 5.23858C16.9218 5.23858 16.9549 5.22486 16.9793 5.20046C17.0037 5.17605 17.0174 5.14295 17.0174 5.10843V1.79825C17.0174 1.76373 17.0037 1.73063 16.9793 1.70622C16.9549 1.68181 16.9218 1.6681 16.8873 1.6681ZM11.9248 1.24372C11.8505 1.24372 11.7769 1.25835 11.7083 1.28679C11.6396 1.31523 11.5772 1.35691 11.5247 1.40945C11.4722 1.46199 11.4305 1.52437 11.402 1.59302C11.3736 1.66167 11.359 1.73526 11.359 1.80956V5.11975C11.3423 5.20193 11.3441 5.28679 11.3642 5.3682C11.3843 5.4496 11.4223 5.52552 11.4754 5.59045C11.5285 5.65538 11.5953 5.7077 11.6711 5.74363C11.7468 5.77956 11.8296 5.79819 11.9135 5.79819C11.9974 5.79819 12.0802 5.77956 12.1559 5.74363C12.2317 5.7077 12.2985 5.65538 12.3516 5.59045C12.4047 5.52552 12.4427 5.4496 12.4628 5.3682C12.4829 5.28679 12.4847 5.20193 12.468 5.11975V1.79825C12.4653 1.65398 12.4075 1.51622 12.3065 1.41315C12.2055 1.31007 12.069 1.24946 11.9248 1.24372Z" fill="white"/>
    <path d="M11.9242 6.08651C11.6646 6.08651 11.4156 5.98338 11.232 5.7998C11.0484 5.61621 10.9453 5.36722 10.9453 5.1076V1.79742C10.9453 1.66885 10.9706 1.54154 11.0198 1.42276C11.069 1.30397 11.1411 1.19604 11.232 1.10513C11.3229 1.01421 11.4308 0.942092 11.5496 0.892888C11.6684 0.843684 11.7957 0.818359 11.9242 0.818359C12.0528 0.818359 12.1801 0.843684 12.2989 0.892888C12.4176 0.942092 12.5256 1.01421 12.6165 1.10513C12.7074 1.19604 12.7795 1.30397 12.8287 1.42276C12.8778 1.54154 12.9032 1.66885 12.9031 1.79742V5.1076C12.9031 5.36722 12.8 5.61621 12.6164 5.7998C12.4328 5.98338 12.1838 6.08651 11.9242 6.08651ZM11.9242 1.66727C11.8897 1.66727 11.8566 1.68098 11.8322 1.70539C11.8078 1.7298 11.7941 1.7629 11.7941 1.79742V5.1076C11.7941 5.14212 11.8078 5.17522 11.8322 5.19963C11.8566 5.22403 11.8897 5.23775 11.9242 5.23775C11.9587 5.23775 11.9918 5.22403 12.0162 5.19963C12.0407 5.17522 12.0544 5.14212 12.0544 5.1076V1.79742C12.0544 1.78032 12.051 1.7634 12.0445 1.74761C12.0379 1.73182 12.0283 1.71747 12.0162 1.70539C12.0042 1.6933 11.9898 1.68372 11.974 1.67718C11.9582 1.67064 11.9413 1.66727 11.9242 1.66727Z" fill="white"/>
  </g>
  <defs>
    <clipPath id="clip0_666_6071">
      <rect width="24" height="24" fill="white"/>
    </clipPath>
  </defs>
</svg>