<svg xmlns="http://www.w3.org/2000/svg" width="24" height="24" viewBox="0 0 24 24" fill="none">
  <path d="M1.47656 15.125C1.51098 15.0155 1.53858 14.9032 1.58096 14.7969C1.77367 14.3131 2.27057 13.9874 2.78749 13.9917C3.17008 13.9948 3.49336 14.1165 3.75406 14.3776C3.95449 14.5783 4.0922 14.8285 4.11482 15.1242C4.12415 15.2463 4.13744 15.3686 4.13773 15.4908C4.13974 16.334 4.12732 17.1774 4.14346 18.0202C4.15195 18.464 4.37157 18.8111 4.7479 19.0525C4.97977 19.2013 5.23326 19.2529 5.50914 19.2527C9.88888 19.2492 14.2686 19.2499 18.6484 19.2506C19.2126 19.2507 19.7502 18.8057 19.8698 18.2682C19.9011 18.1272 19.9172 17.98 19.9179 17.8356C19.9224 16.9964 19.9244 16.1572 19.9187 15.318C19.9145 14.7053 20.3089 14.1798 20.8842 14.0354C21.6642 13.8397 22.3684 14.2676 22.5564 15.0529C22.5677 15.1003 22.5738 15.1489 22.5823 15.197V19.4421C22.5744 19.4582 22.56 19.4741 22.5595 19.4904C22.5487 19.8325 22.45 20.1524 22.2999 20.4551C22.1214 20.8152 21.8729 21.1245 21.5522 21.368C21.2996 21.5597 21.026 21.7176 20.7129 21.794C20.5525 21.8331 20.3922 21.8729 20.2318 21.9124H3.82697C3.66577 21.8757 3.5017 21.8484 3.34391 21.8005C2.87932 21.6595 2.48424 21.4062 2.15653 21.0464C1.87728 20.7399 1.68527 20.3861 1.57355 19.9887C1.53415 19.8485 1.50848 19.7044 1.47656 19.562V15.125Z" fill="white" stroke="#20242F" stroke-width="0.5"/>
  <path d="M12.1491 2.12507C12.2853 2.16467 12.4268 2.19163 12.5568 2.24617C12.9742 2.42139 13.2256 2.74076 13.3226 3.18004C13.3436 3.27531 13.3472 3.37592 13.3473 3.47409C13.3485 6.27172 13.3483 9.06935 13.3483 11.867V12.0273C13.3793 12.003 13.4005 11.9894 13.4181 11.9721C13.9641 11.4346 14.5069 10.8938 15.0566 10.3601C15.4303 9.99716 15.9765 9.92701 16.4291 10.0935C16.8429 10.2458 17.1225 10.5379 17.2353 10.9652C17.3622 11.4458 17.2825 11.8927 16.9229 12.2544C15.6491 13.5353 14.3674 14.8083 13.095 16.0907C12.9446 16.2423 12.807 16.4008 12.6126 16.4991C12.4303 16.5913 12.2399 16.6245 12.036 16.6419C11.7872 16.6632 11.5618 16.6133 11.3466 16.5073C11.2427 16.4562 11.1453 16.3818 11.0622 16.3003C10.6571 15.9029 10.2564 15.501 9.85698 15.0978C9.33463 14.5705 8.81462 14.041 8.29432 13.5117C7.9001 13.1106 7.51014 12.7053 7.11254 12.3077C6.63541 11.8305 6.59241 11.058 6.98056 10.5501C7.19867 10.2647 7.48949 10.0866 7.85891 10.0362C8.32499 9.97262 8.71139 10.12 9.0356 10.4422C9.43724 10.8415 9.83083 11.2489 10.2256 11.6549C10.3739 11.8074 10.5156 11.9662 10.6861 12.1096V11.9712C10.6861 9.14562 10.6852 6.32 10.6873 3.4944C10.6875 3.12793 10.8035 2.79607 11.0626 2.53224C11.2793 2.31162 11.5435 2.16983 11.861 2.14793C11.8775 2.14678 11.8932 2.13294 11.9093 2.125C11.9892 2.12507 12.0692 2.12507 12.1491 2.12507Z" fill="white" stroke="#20242F" stroke-width="0.5"/>
</svg>